<?xml version="1.0" encoding="UTF-8" standalone="yes"?><svg xmlns="http://www.w3.org/2000/svg" xmlns:xlink="http://www.w3.org/1999/xlink" id="icon--logo" fill="#95c23d" viewBox="0 0 200 48" width="100%" height="100%"><path d="M125.8 12.071v13.753c0 3.746 2.33 6.227 5.922 6.227 3.592 0 5.922-2.481 5.922-6.227V11.12h5v14.705c0 6.178-4.418 10.362-10.874 10.362-3.565 0-6.52-1.257-8.463-3.411-1.922 2.154-4.848 3.41-8.388 3.41-6.504 0-10.97-4.183-10.97-10.36V23.55h.002v-2.068c0-3.746-2.33-6.227-5.922-6.227-3.593 0-5.923 2.481-5.923 6.227v14.01h-5v-14.01c0-6.178 4.418-10.362 10.874-10.362 6.505 0 10.97 4.184 10.97 10.362v2.275h-.001v2.068c0 3.746 2.33 6.227 5.922 6.227 3.592 0 5.922-2.481 5.922-6.227V11.12h5.007v.952zM12.767 11.12c7.378 0 12.717 5.205 12.717 12.405 0 7.2-5.34 12.405-12.717 12.405C5.388 35.929 0 30.724 0 23.524s5.388-12.405 12.767-12.405zm-.049 4.33c-4.417 0-7.621 3.405-7.621 8.075 0 4.719 3.204 8.075 7.621 8.075 4.466 0 7.67-3.356 7.67-8.075 0-4.67-3.204-8.075-7.67-8.075zm29.036-4.33c7.378 0 12.669 5.205 12.669 12.55 0 7.055-5 12.26-12.038 12.26-3.495 0-6.457-1.46-8.35-3.746V48h-4.95V23.524c0-7.2 5.29-12.405 12.669-12.405zm-.049 20.48c4.417 0 7.621-3.405 7.621-8.075 0-4.719-3.204-8.075-7.621-8.075-4.466 0-7.67 3.356-7.67 8.075 0 4.67 3.204 8.075 7.67 8.075zm41.268-8.026a7.87 7.87 0 0 1-.146 1.508H62.44c.63 3.989 3.738 6.761 7.864 6.761 3.398 0 6.31-2.14 7.232-5.01h5.049c-1.36 5.302-6.456 9.097-12.33 9.097-7.378 0-12.766-5.205-12.766-12.405 0-7.2 5.388-12.405 12.766-12.405s12.67 5.205 12.718 12.454zm-12.67-8.368c-3.883 0-6.844 2.481-7.718 6.033h15.582c-.825-3.552-3.931-6.033-7.863-6.033zM171.11 23.83a7.87 7.87 0 0 1-.146 1.508h-20.387c.63 3.989 3.738 6.762 7.864 6.762 3.398 0 6.31-2.14 7.232-5.011h5.049c-1.36 5.302-6.456 9.097-12.33 9.097-7.378 0-12.766-5.205-12.766-12.405 0-7.2 5.388-12.405 12.766-12.405s12.67 5.205 12.718 12.454zm-12.67-8.367c-3.883 0-6.844 2.48-7.718 6.032h15.582c-.825-3.551-3.931-6.032-7.863-6.032zm29.522-4.087C195 11.376 200 16.581 200 23.636c0 7.345-5.291 12.55-12.67 12.55-7.378 0-12.669-5.205-12.669-12.405V0h4.951v15.122c1.894-2.286 4.855-3.746 8.35-3.746zm-.68 20.48c4.417 0 7.621-3.356 7.621-8.075 0-4.67-3.204-8.075-7.621-8.075-4.466 0-7.67 3.405-7.67 8.075 0 4.719 3.204 8.075 7.67 8.075z"/></svg>