<?xml version="1.0" encoding="UTF-8" standalone="yes"?><svg xmlns="http://www.w3.org/2000/svg" xmlns:xlink="http://www.w3.org/1999/xlink" height="341px" style="width:1049px;height:341px;" version="1.1" viewBox="0 0 1049 341" width="1049px"><defs><filter height="300%" id="f1" width="300%" x="-1" y="-1"><feGaussianBlur result="blurOut" stdDeviation="2.0"/><feColorMatrix in="blurOut" result="blurOut2" type="matrix" values="0 0 0 0 0 0 0 0 0 0 0 0 0 0 0 0 0 0 .4 0"/><feOffset dx="4.0" dy="4.0" in="blurOut2" result="blurOut3"/><feBlend in="SourceGraphic" in2="blurOut3" mode="normal"/></filter></defs><g><text fill="#000000" font-family="sans-serif" font-size="18" lengthAdjust="spacingAndGlyphs" textLength="160" x="454" y="17.4023">Command handler</text><polygon fill="#FFFF00" filter="url(#f1)" points="187.9339,45.1992,463.9339,45.1992,470.9339,67.6875,706.9339,67.6875,706.9339,132.1992,187.9339,132.1992,187.9339,45.1992" style="stroke: #000000; stroke-width: 2.0;"/><line style="stroke: #000000; stroke-width: 2.0;" x1="187.9339" x2="470.9339" y1="67.6875" y2="67.6875"/><text fill="#000000" font-family="sans-serif" font-size="14" font-weight="bold" lengthAdjust="spacingAndGlyphs" textLength="270" x="191.9339" y="60.7344">nl.openweb.command-handler.core.clj</text><polygon fill="#ADD8E6" filter="url(#f1)" points="206.9339,242.1992,284.9339,242.1992,291.9339,264.6875,469.9339,264.6875,469.9339,334.1992,206.9339,334.1992,206.9339,242.1992" style="stroke: #000000; stroke-width: 2.0;"/><line style="stroke: #000000; stroke-width: 2.0;" x1="206.9339" x2="291.9339" y1="264.6875" y2="264.6875"/><text fill="#000000" font-family="sans-serif" font-size="14" font-weight="bold" lengthAdjust="spacingAndGlyphs" textLength="72" x="210.9339" y="257.7344">balancedb</text><rect fill="#FEFECE" filter="url(#f1)" height="36.4883" style="stroke: #A80036; stroke-width: 1.5;" width="106" x="203.9339" y="80.1992"/><rect fill="#FEFECE" height="5" style="stroke: #A80036; stroke-width: 1.5;" width="10" x="198.9339" y="85.1992"/><rect fill="#FEFECE" height="5" style="stroke: #A80036; stroke-width: 1.5;" width="10" x="198.9339" y="106.6875"/><text fill="#000000" font-family="sans-serif" font-size="14" lengthAdjust="spacingAndGlyphs" textLength="86" x="213.9339" y="103.7344">cmt-handler</text><rect fill="#FEFECE" filter="url(#f1)" height="36.4883" style="stroke: #A80036; stroke-width: 1.5;" width="103" x="345.4339" y="80.1992"/><rect fill="#FEFECE" height="5" style="stroke: #A80036; stroke-width: 1.5;" width="10" x="340.4339" y="85.1992"/><rect fill="#FEFECE" height="5" style="stroke: #A80036; stroke-width: 1.5;" width="10" x="340.4339" y="106.6875"/><text fill="#000000" font-family="sans-serif" font-size="14" lengthAdjust="spacingAndGlyphs" textLength="83" x="355.4339" y="103.7344">cac-handler</text><rect fill="#FEFECE" filter="url(#f1)" height="36.4883" style="stroke: #A80036; stroke-width: 1.5;" width="88" x="483.9339" y="80.1992"/><rect fill="#FEFECE" height="5" style="stroke: #A80036; stroke-width: 1.5;" width="10" x="478.9339" y="85.1992"/><rect fill="#FEFECE" height="5" style="stroke: #A80036; stroke-width: 1.5;" width="10" x="478.9339" y="106.6875"/><text fill="#000000" font-family="sans-serif" font-size="14" lengthAdjust="spacingAndGlyphs" textLength="68" x="493.9339" y="103.7344">consumer</text><rect fill="#FEFECE" filter="url(#f1)" height="36.4883" style="stroke: #A80036; stroke-width: 1.5;" width="83" x="607.4339" y="80.1992"/><rect fill="#FEFECE" height="5" style="stroke: #A80036; stroke-width: 1.5;" width="10" x="602.4339" y="85.1992"/><rect fill="#FEFECE" height="5" style="stroke: #A80036; stroke-width: 1.5;" width="10" x="602.4339" y="106.6875"/><text fill="#000000" font-family="sans-serif" font-size="14" lengthAdjust="spacingAndGlyphs" textLength="63" x="617.4339" y="103.7344">producer</text><path d="M303.4339,287.1992 C303.4339,277.1992 339.9339,277.1992 339.9339,277.1992 C339.9339,277.1992 376.4339,277.1992 376.4339,287.1992 L376.4339,308.6875 C376.4339,318.6875 339.9339,318.6875 339.9339,318.6875 C339.9339,318.6875 303.4339,318.6875 303.4339,308.6875 L303.4339,287.1992 " fill="#FEFECE" filter="url(#f1)" style="stroke: #000000; stroke-width: 1.5;"/><path d="M303.4339,287.1992 C303.4339,297.1992 339.9339,297.1992 339.9339,297.1992 C339.9339,297.1992 376.4339,297.1992 376.4339,287.1992 " fill="none" style="stroke: #000000; stroke-width: 1.5;"/><text fill="#000000" font-family="sans-serif" font-size="14" lengthAdjust="spacingAndGlyphs" textLength="53" x="313.4339" y="310.7344">balance</text><path d="M411.9339,287.1992 C411.9339,277.1992 432.9339,277.1992 432.9339,277.1992 C432.9339,277.1992 453.9339,277.1992 453.9339,287.1992 L453.9339,308.6875 C453.9339,318.6875 432.9339,318.6875 432.9339,318.6875 C432.9339,318.6875 411.9339,318.6875 411.9339,308.6875 L411.9339,287.1992 " fill="#FEFECE" filter="url(#f1)" style="stroke: #000000; stroke-width: 1.5;"/><path d="M411.9339,287.1992 C411.9339,297.1992 432.9339,297.1992 432.9339,297.1992 C432.9339,297.1992 453.9339,297.1992 453.9339,287.1992 " fill="none" style="stroke: #000000; stroke-width: 1.5;"/><text fill="#000000" font-family="sans-serif" font-size="14" lengthAdjust="spacingAndGlyphs" textLength="22" x="421.9339" y="310.7344">cac</text><path d="M223.4339,287.1992 C223.4339,277.1992 245.9339,277.1992 245.9339,277.1992 C245.9339,277.1992 268.4339,277.1992 268.4339,287.1992 L268.4339,308.6875 C268.4339,318.6875 245.9339,318.6875 245.9339,318.6875 C245.9339,318.6875 223.4339,318.6875 223.4339,308.6875 L223.4339,287.1992 " fill="#FEFECE" filter="url(#f1)" style="stroke: #000000; stroke-width: 1.5;"/><path d="M223.4339,287.1992 C223.4339,297.1992 245.9339,297.1992 245.9339,297.1992 C245.9339,297.1992 268.4339,297.1992 268.4339,287.1992 " fill="none" style="stroke: #000000; stroke-width: 1.5;"/><text fill="#000000" font-family="sans-serif" font-size="14" lengthAdjust="spacingAndGlyphs" textLength="25" x="233.4339" y="310.7344">cmt</text><rect fill="#FFA500" filter="url(#f1)" height="36.4883" style="stroke: #A80036; stroke-width: 1.5;" width="108" x="735.9339" y="279.6992"/><rect fill="#FFA500" height="5" style="stroke: #A80036; stroke-width: 1.5;" width="10" x="730.9339" y="284.6992"/><rect fill="#FFA500" height="5" style="stroke: #A80036; stroke-width: 1.5;" width="10" x="730.9339" y="306.1875"/><text fill="#000000" font-family="sans-serif" font-size="14" lengthAdjust="spacingAndGlyphs" textLength="88" x="745.9339" y="303.2344">Kafka cluster</text><path d="M203.8376,101.9081 C141.689,107.4835 44.375,120.4811 21.9339,148.1992 C0.1201,175.1424 1.4847,198.2062 21.9339,226.1992 C45.4364,258.3719 163.3362,283.0523 218.0101,292.9604 " fill="none" style="stroke: #A80036; stroke-width: 1.0;"/><polygon fill="#A80036" points="223.0985,293.8729,214.9459,288.3471,218.177,292.9903,213.5338,296.2215,223.0985,293.8729" style="stroke: #A80036; stroke-width: 1.0;"/><text fill="#000000" font-family="sans-serif" font-size="13" lengthAdjust="spacingAndGlyphs" textLength="130" x="22.9339" y="192.2676">check/update status</text><path d="M438.1679,116.2541 C451.0347,124.0943 463.733,134.6432 470.9339,148.1992 C492.4275,188.6619 468.2206,241.8131 449.7972,272.6214 " fill="none" style="stroke: #A80036; stroke-width: 1.0;"/><polygon fill="#A80036" points="447.127,277.0006,455.2276,271.3988,449.73,272.7316,448.3972,267.234,447.127,277.0006" style="stroke: #A80036; stroke-width: 1.0;"/><text fill="#000000" font-family="sans-serif" font-size="13" lengthAdjust="spacingAndGlyphs" textLength="130" x="480.9339" y="192.2676">check/update status</text><path d="M229.1967,116.3324 C218.9326,124.68 208.4585,135.5546 202.9339,148.1992 C189.0544,179.9661 179.6264,200.5372 202.9339,226.1992 C215.3921,239.916 269.5072,225.6247 285.9339,234.1992 C302.5594,242.8775 316.1907,259.0422 325.5987,272.8898 " fill="none" style="stroke: #A80036; stroke-width: 1.0;"/><polygon fill="#A80036" points="328.3815,277.1021,326.758,267.388,325.6254,272.9303,320.0831,271.7978,328.3815,277.1021" style="stroke: #A80036; stroke-width: 1.0;"/><text fill="#000000" font-family="sans-serif" font-size="13" lengthAdjust="spacingAndGlyphs" textLength="139" x="203.9339" y="192.2676">check/update balance</text><path d="M385.7889,116.6411 C380.6322,125.8497 374.8057,137.3226 370.9339,148.1992 C355.976,190.2184 347.2886,241.5882 343.0908,271.8632 " fill="none" style="stroke: #A80036; stroke-width: 1.0;"/><polygon fill="#A80036" points="342.407,276.8998,347.5815,268.5198,343.0797,271.9453,339.6542,267.4435,342.407,276.8998" style="stroke: #A80036; stroke-width: 1.0;"/><text fill="#000000" font-family="sans-serif" font-size="13" lengthAdjust="spacingAndGlyphs" textLength="90" x="371.9339" y="192.2676">crates balance</text><path d="M690.4407,102.0273 C745.787,108.089 839.2106,121.9913 859.9339,148.1992 C881.4359,175.3919 873.0303,194.1015 859.9339,226.1992 C851.8356,246.0471 835.2801,263.3735 820.3022,275.9977 " fill="none" style="stroke: #A80036; stroke-width: 1.0;"/><polygon fill="#A80036" points="816.1278,279.4318,825.6193,276.803,819.9891,276.2553,820.5368,270.625,816.1278,279.4318" style="stroke: #A80036; stroke-width: 1.0;"/><text fill="#000000" font-family="sans-serif" font-size="13" lengthAdjust="spacingAndGlyphs" textLength="175" x="873.9339" y="161.7676">AccountCreationConfirmed,</text><text fill="#000000" font-family="sans-serif" font-size="13" lengthAdjust="spacingAndGlyphs" textLength="146" x="888.4339" y="177.0781">AccountCreationFailed,</text><text fill="#000000" font-family="sans-serif" font-size="13" lengthAdjust="spacingAndGlyphs" textLength="163" x="879.9339" y="192.3887">MoneyTransferConfirmed,</text><text fill="#000000" font-family="sans-serif" font-size="13" lengthAdjust="spacingAndGlyphs" textLength="157" x="882.9339" y="207.6992">MoneyTransferFailed and</text><text fill="#000000" font-family="sans-serif" font-size="13" lengthAdjust="spacingAndGlyphs" textLength="102" x="910.4339" y="223.0098">BalanceChanged</text><path d="M554.7569,119.2547 C565.2648,126.7123 577.7165,134.6255 589.9339,140.1992 C602.4884,145.9267 608.6124,140.3097 619.9339,148.1992 C654.7354,172.4512 644.0839,197.0859 674.9339,226.1992 C698.1018,248.0629 728.9621,266.8129 752.8811,279.6201 " fill="none" style="stroke: #A80036; stroke-width: 1.0;"/><polygon fill="#A80036" points="550.6801,116.3156,555.6413,124.8237,554.7359,119.2397,560.3198,118.3344,550.6801,116.3156" style="stroke: #A80036; stroke-width: 1.0;"/><text fill="#000000" font-family="sans-serif" font-size="13" lengthAdjust="spacingAndGlyphs" textLength="156" x="685.4339" y="184.7676">ConfirmAccountCreation</text><text fill="#000000" font-family="sans-serif" font-size="13" lengthAdjust="spacingAndGlyphs" textLength="171" x="679.9339" y="200.0781">and ConfirmMoneyTransfer</text></g></svg>