<?xml version="1.0" encoding="UTF-8" standalone="no"?>
<!DOCTYPE svg PUBLIC "-//W3C//DTD SVG 1.1//EN"
 "http://www.w3.org/Graphics/SVG/1.1/DTD/svg11.dtd">
<!-- Generated by graphviz version 2.40.1 (20161225.0304)
 -->
<!-- Title: %3 Pages: 1 -->
<svg width="591pt" height="260pt"
 viewBox="0.00 0.00 590.74 260.00" xmlns="http://www.w3.org/2000/svg" xmlns:xlink="http://www.w3.org/1999/xlink">
<g id="graph0" class="graph" transform="scale(1 1) rotate(0) translate(4 256)">
<title>%3</title>
<polygon fill="#ffffff" stroke="transparent" points="-4,4 -4,-256 586.7436,-256 586.7436,4 -4,4"/>
<!-- server_4 -->
<g id="node1" class="node">
<title>server_4</title>
<ellipse fill="none" stroke="#000000" cx="276.3475" cy="-234" rx="34.3354" ry="18"/>
<text text-anchor="middle" x="276.3475" y="-229.8" font-family="Times,serif" font-size="14.00" fill="#000000">:server</text>
</g>
<!-- schema&#45;provider_7 -->
<g id="node2" class="node">
<title>schema&#45;provider_7</title>
<ellipse fill="none" stroke="#000000" cx="276.3475" cy="-162" rx="71.9704" ry="18"/>
<text text-anchor="middle" x="276.3475" y="-157.8" font-family="Times,serif" font-size="14.00" fill="#000000">:schema&#45;provider</text>
</g>
<!-- server_4&#45;&gt;schema&#45;provider_7 -->
<g id="edge1" class="edge">
<title>server_4&#45;&gt;schema&#45;provider_7</title>
<path fill="none" stroke="#000000" d="M276.3475,-215.8314C276.3475,-208.131 276.3475,-198.9743 276.3475,-190.4166"/>
<polygon fill="#000000" stroke="#000000" points="279.8476,-190.4132 276.3475,-180.4133 272.8476,-190.4133 279.8476,-190.4132"/>
</g>
<!-- transaction&#45;service_6 -->
<g id="node3" class="node">
<title>transaction&#45;service_6</title>
<ellipse fill="none" stroke="#000000" cx="79.3475" cy="-90" rx="79.1954" ry="18"/>
<text text-anchor="middle" x="79.3475" y="-85.8" font-family="Times,serif" font-size="14.00" fill="#000000">:transaction&#45;service</text>
</g>
<!-- schema&#45;provider_7&#45;&gt;transaction&#45;service_6 -->
<g id="edge2" class="edge">
<title>schema&#45;provider_7&#45;&gt;transaction&#45;service_6</title>
<path fill="none" stroke="#000000" d="M235.529,-147.0816C205.2972,-136.0324 163.8723,-120.8923 131.2816,-108.981"/>
<polygon fill="#000000" stroke="#000000" points="132.0668,-105.5416 121.473,-105.3961 129.6639,-112.1162 132.0668,-105.5416"/>
</g>
<!-- account&#45;creation&#45;service_1 -->
<g id="node4" class="node">
<title>account&#45;creation&#45;service_1</title>
<ellipse fill="none" stroke="#000000" cx="276.3475" cy="-90" rx="99.4398" ry="18"/>
<text text-anchor="middle" x="276.3475" y="-85.8" font-family="Times,serif" font-size="14.00" fill="#000000">:account&#45;creation&#45;service</text>
</g>
<!-- schema&#45;provider_7&#45;&gt;account&#45;creation&#45;service_1 -->
<g id="edge3" class="edge">
<title>schema&#45;provider_7&#45;&gt;account&#45;creation&#45;service_1</title>
<path fill="none" stroke="#000000" d="M276.3475,-143.8314C276.3475,-136.131 276.3475,-126.9743 276.3475,-118.4166"/>
<polygon fill="#000000" stroke="#000000" points="279.8476,-118.4132 276.3475,-108.4133 272.8476,-118.4133 279.8476,-118.4132"/>
</g>
<!-- money&#45;transfer&#45;service_5 -->
<g id="node5" class="node">
<title>money&#45;transfer&#45;service_5</title>
<ellipse fill="none" stroke="#000000" cx="488.3475" cy="-90" rx="94.2923" ry="18"/>
<text text-anchor="middle" x="488.3475" y="-85.8" font-family="Times,serif" font-size="14.00" fill="#000000">:money&#45;transfer&#45;service</text>
</g>
<!-- schema&#45;provider_7&#45;&gt;money&#45;transfer&#45;service_5 -->
<g id="edge4" class="edge">
<title>schema&#45;provider_7&#45;&gt;money&#45;transfer&#45;service_5</title>
<path fill="none" stroke="#000000" d="M319.2489,-147.4297C351.7631,-136.3872 396.7308,-121.1151 432.1217,-109.0956"/>
<polygon fill="#000000" stroke="#000000" points="433.4882,-112.3279 441.8314,-105.7979 431.237,-105.6997 433.4882,-112.3279"/>
</g>
<!-- db_3 -->
<g id="node6" class="node">
<title>db_3</title>
<ellipse fill="none" stroke="#000000" cx="199.3475" cy="-18" rx="27" ry="18"/>
<text text-anchor="middle" x="199.3475" y="-13.8" font-family="Times,serif" font-size="14.00" fill="#000000">:db</text>
</g>
<!-- transaction&#45;service_6&#45;&gt;db_3 -->
<g id="edge5" class="edge">
<title>transaction&#45;service_6&#45;&gt;db_3</title>
<path fill="none" stroke="#000000" d="M107.4822,-73.1192C126.4996,-61.7088 151.5337,-46.6883 170.6652,-35.2094"/>
<polygon fill="#000000" stroke="#000000" points="172.4891,-38.1968 179.2633,-30.0505 168.8876,-32.1943 172.4891,-38.1968"/>
</g>
<!-- account&#45;creation&#45;service_1&#45;&gt;db_3 -->
<g id="edge7" class="edge">
<title>account&#45;creation&#45;service_1&#45;&gt;db_3</title>
<path fill="none" stroke="#000000" d="M257.3138,-72.2022C246.7479,-62.3224 233.5275,-49.9605 222.3814,-39.5382"/>
<polygon fill="#000000" stroke="#000000" points="224.7491,-36.9604 215.0544,-32.6869 219.9682,-42.0734 224.7491,-36.9604"/>
</g>
<!-- kafka&#45;producer_2 -->
<g id="node7" class="node">
<title>kafka&#45;producer_2</title>
<ellipse fill="none" stroke="#000000" cx="353.3475" cy="-18" rx="66.6493" ry="18"/>
<text text-anchor="middle" x="353.3475" y="-13.8" font-family="Times,serif" font-size="14.00" fill="#000000">:kafka&#45;producer</text>
</g>
<!-- account&#45;creation&#45;service_1&#45;&gt;kafka&#45;producer_2 -->
<g id="edge6" class="edge">
<title>account&#45;creation&#45;service_1&#45;&gt;kafka&#45;producer_2</title>
<path fill="none" stroke="#000000" d="M295.3812,-72.2022C305.0572,-63.1546 316.9592,-52.0255 327.4557,-42.2105"/>
<polygon fill="#000000" stroke="#000000" points="329.8847,-44.731 334.7985,-35.3446 325.1037,-39.6181 329.8847,-44.731"/>
</g>
<!-- money&#45;transfer&#45;service_5&#45;&gt;kafka&#45;producer_2 -->
<g id="edge8" class="edge">
<title>money&#45;transfer&#45;service_5&#45;&gt;kafka&#45;producer_2</title>
<path fill="none" stroke="#000000" d="M456.3544,-72.937C437.2868,-62.7676 412.9346,-49.7798 392.696,-38.9859"/>
<polygon fill="#000000" stroke="#000000" points="394.191,-35.8166 383.7204,-34.1989 390.8969,-41.993 394.191,-35.8166"/>
</g>
</g>
</svg>
