<?xml version="1.0" encoding="UTF-8" standalone="yes"?><svg xmlns="http://www.w3.org/2000/svg" xmlns:xlink="http://www.w3.org/1999/xlink" height="270px" style="width:729px;height:270px;" version="1.1" viewBox="0 0 729 270" width="729px"><defs><filter height="300%" id="f1" width="300%" x="-1" y="-1"><feGaussianBlur result="blurOut" stdDeviation="2.0"/><feColorMatrix in="blurOut" result="blurOut2" type="matrix" values="0 0 0 0 0 0 0 0 0 0 0 0 0 0 0 0 0 0 .4 0"/><feOffset dx="4.0" dy="4.0" in="blurOut2" result="blurOut3"/><feBlend in="SourceGraphic" in2="blurOut3" mode="normal"/></filter></defs><g><text fill="#000000" font-family="sans-serif" font-size="18" lengthAdjust="spacingAndGlyphs" textLength="85" x="326.5" y="17.4023">Heartbeat</text><polygon fill="#FFFF00" filter="url(#f1)" points="43.5769,45.1992,254.5769,45.1992,261.5769,67.6875,525.5769,67.6875,525.5769,132.1992,43.5769,132.1992,43.5769,45.1992" style="stroke: #000000; stroke-width: 2.0;"/><line style="stroke: #000000; stroke-width: 2.0;" x1="43.5769" x2="261.5769" y1="67.6875" y2="67.6875"/><text fill="#000000" font-family="sans-serif" font-size="14" font-weight="bold" lengthAdjust="spacingAndGlyphs" textLength="205" x="47.5769" y="60.7344">nl.openweb.heartbeat.core.clj</text><rect fill="#FEFECE" filter="url(#f1)" height="36.4883" style="stroke: #A80036; stroke-width: 1.5;" width="73" x="60.0769" y="80.1992"/><rect fill="#FEFECE" height="5" style="stroke: #A80036; stroke-width: 1.5;" width="10" x="55.0769" y="85.1992"/><rect fill="#FEFECE" height="5" style="stroke: #A80036; stroke-width: 1.5;" width="10" x="55.0769" y="106.6875"/><text fill="#000000" font-family="sans-serif" font-size="14" lengthAdjust="spacingAndGlyphs" textLength="53" x="70.0769" y="103.7344">counter</text><rect fill="#FEFECE" filter="url(#f1)" height="36.4883" style="stroke: #A80036; stroke-width: 1.5;" width="93" x="168.0769" y="80.1992"/><rect fill="#FEFECE" height="5" style="stroke: #A80036; stroke-width: 1.5;" width="10" x="163.0769" y="85.1992"/><rect fill="#FEFECE" height="5" style="stroke: #A80036; stroke-width: 1.5;" width="10" x="163.0769" y="106.6875"/><text fill="#000000" font-family="sans-serif" font-size="14" lengthAdjust="spacingAndGlyphs" textLength="73" x="178.0769" y="103.7344">batch-size</text><rect fill="#FEFECE" filter="url(#f1)" height="36.4883" style="stroke: #A80036; stroke-width: 1.5;" width="94" x="296.5769" y="80.1992"/><rect fill="#FEFECE" height="5" style="stroke: #A80036; stroke-width: 1.5;" width="10" x="291.5769" y="85.1992"/><rect fill="#FEFECE" height="5" style="stroke: #A80036; stroke-width: 1.5;" width="10" x="291.5769" y="106.6875"/><text fill="#000000" font-family="sans-serif" font-size="14" lengthAdjust="spacingAndGlyphs" textLength="74" x="306.5769" y="103.7344">sleep-time</text><rect fill="#FEFECE" filter="url(#f1)" height="36.4883" style="stroke: #A80036; stroke-width: 1.5;" width="83" x="426.0769" y="80.1992"/><rect fill="#FEFECE" height="5" style="stroke: #A80036; stroke-width: 1.5;" width="10" x="421.0769" y="85.1992"/><rect fill="#FEFECE" height="5" style="stroke: #A80036; stroke-width: 1.5;" width="10" x="421.0769" y="106.6875"/><text fill="#000000" font-family="sans-serif" font-size="14" lengthAdjust="spacingAndGlyphs" textLength="63" x="436.0769" y="103.7344">producer</text><rect fill="#FFFF00" filter="url(#f1)" height="36.4883" style="stroke: #A80036; stroke-width: 1.5;" width="49" x="139.0769" y="225.1992"/><rect fill="#FFFF00" height="5" style="stroke: #A80036; stroke-width: 1.5;" width="10" x="134.0769" y="230.1992"/><rect fill="#FFFF00" height="5" style="stroke: #A80036; stroke-width: 1.5;" width="10" x="134.0769" y="251.6875"/><text fill="#000000" font-family="sans-serif" font-size="14" lengthAdjust="spacingAndGlyphs" textLength="29" x="149.0769" y="248.7344">Test</text><rect fill="#FFA500" filter="url(#f1)" height="36.4883" style="stroke: #A80036; stroke-width: 1.5;" width="108" x="436.5769" y="225.1992"/><rect fill="#FFA500" height="5" style="stroke: #A80036; stroke-width: 1.5;" width="10" x="431.5769" y="230.1992"/><rect fill="#FFA500" height="5" style="stroke: #A80036; stroke-width: 1.5;" width="10" x="431.5769" y="251.6875"/><text fill="#000000" font-family="sans-serif" font-size="14" lengthAdjust="spacingAndGlyphs" textLength="88" x="446.5769" y="248.7344">Kafka cluster</text><rect fill="#FFA500" filter="url(#f1)" height="36.4883" style="stroke: #A80036; stroke-width: 1.5;" width="129" x="591.0769" y="225.1992"/><rect fill="#FFA500" height="5" style="stroke: #A80036; stroke-width: 1.5;" width="10" x="586.0769" y="230.1992"/><rect fill="#FFA500" height="5" style="stroke: #A80036; stroke-width: 1.5;" width="10" x="586.0769" y="251.6875"/><text fill="#000000" font-family="sans-serif" font-size="14" lengthAdjust="spacingAndGlyphs" textLength="109" x="601.0769" y="248.7344">Schema registry</text><path d="M470.4434,116.2704 C474.5925,142.4281 482.2752,190.8624 486.8565,219.7446 " fill="none" style="stroke: #A80036; stroke-width: 1.0;"/><polygon fill="#A80036" points="487.6743,224.9003,490.2147,215.3847,486.8909,219.9621,482.3135,216.6382,487.6743,224.9003" style="stroke: #A80036; stroke-width: 1.0;"/><text fill="#000000" font-family="sans-serif" font-size="13" lengthAdjust="spacingAndGlyphs" textLength="123" x="482.5769" y="176.7676">produces Heartbeat</text><path d="M514.3342,104.0472 C546.041,110.2117 587.0369,122.7677 614.5769,148.1992 C636.8803,168.795 647.6043,203.5995 652.3174,224.877 " fill="none" style="stroke: #A80036; stroke-width: 1.0;"/><polygon fill="#A80036" points="509.3287,103.1117,517.4407,108.6971,514.2436,104.0303,518.9104,100.8332,509.3287,103.1117" style="stroke: #A80036; stroke-width: 1.0;"/><text fill="#000000" font-family="sans-serif" font-size="13" lengthAdjust="spacingAndGlyphs" textLength="72" x="644.5769" y="176.7676">get schema</text><path d="M60.0322,110.7682 C43.0027,118.6758 24.3729,130.7526 14.5769,148.1992 C4.35,166.4133 2.2775,178.3152 14.5769,195.1992 C28.7427,214.6454 94.5834,230.1526 133.8461,237.8679 " fill="none" style="stroke: #A80036; stroke-width: 1.0;"/><polygon fill="#A80036" points="138.9668,238.8596,130.8917,233.2211,134.058,237.9088,129.3704,241.0751,138.9668,238.8596" style="stroke: #A80036; stroke-width: 1.0;"/><text fill="#000000" font-family="sans-serif" font-size="13" lengthAdjust="spacingAndGlyphs" textLength="89" x="36.0769" y="161.7676">get counter to</text><text fill="#000000" font-family="sans-serif" font-size="13" lengthAdjust="spacingAndGlyphs" textLength="130" x="15.5769" y="177.0781">make sure hearbeats</text><text fill="#000000" font-family="sans-serif" font-size="13" lengthAdjust="spacingAndGlyphs" textLength="53" x="54.0769" y="192.3887">are send</text><path d="M182.9909,119.5797 C174.0344,127.4263 165.4109,137.1352 160.5769,148.1992 C149.676,173.1489 154.0733,205.4018 158.5769,225.179 " fill="none" style="stroke: #A80036; stroke-width: 1.0;"/><polygon fill="#A80036" points="186.8397,116.3324,177.3816,119.079,183.0182,119.5567,182.5405,125.1934,186.8397,116.3324" style="stroke: #A80036; stroke-width: 1.0;"/><text fill="#000000" font-family="sans-serif" font-size="13" lengthAdjust="spacingAndGlyphs" textLength="138" x="161.5769" y="169.2676">keep increasing batch</text><text fill="#000000" font-family="sans-serif" font-size="13" lengthAdjust="spacingAndGlyphs" textLength="103" x="181.0769" y="184.5781">size as test runs</text><path d="M339.906,121.5469 C335.2949,143.4029 325.3154,175.5546 304.5769,195.1992 C272.0991,225.9639 219.1251,237.0688 188.1889,241.0358 " fill="none" style="stroke: #A80036; stroke-width: 1.0;"/><polygon fill="#A80036" points="340.9143,116.5007,335.2283,124.5425,339.9346,121.4038,343.0732,126.11,340.9143,116.5007" style="stroke: #A80036; stroke-width: 1.0;"/><text fill="#000000" font-family="sans-serif" font-size="13" lengthAdjust="spacingAndGlyphs" textLength="105" x="333.5769" y="169.2676">set sleep time to</text><text fill="#000000" font-family="sans-serif" font-size="13" lengthAdjust="spacingAndGlyphs" textLength="93" x="339.5769" y="184.5781">know msg/sec</text></g></svg>