<?xml version="1.0" encoding="UTF-8" standalone="yes"?><svg xmlns="http://www.w3.org/2000/svg" xmlns:xlink="http://www.w3.org/1999/xlink" height="369px" style="width:718px;height:369px;" version="1.1" viewBox="0 0 718 369" width="718px"><defs><filter height="300%" id="f1" width="300%" x="-1" y="-1"><feGaussianBlur result="blurOut" stdDeviation="2.0"/><feColorMatrix in="blurOut" result="blurOut2" type="matrix" values="0 0 0 0 0 0 0 0 0 0 0 0 0 0 0 0 0 0 .4 0"/><feOffset dx="4.0" dy="4.0" in="blurOut2" result="blurOut3"/><feBlend in="SourceGraphic" in2="blurOut3" mode="normal"/></filter></defs><g><text fill="#000000" font-family="sans-serif" font-size="18" lengthAdjust="spacingAndGlyphs" textLength="196" x="270" y="17.4023">Money transfer service</text><polygon fill="#FFFF00" filter="url(#f1)" points="86.4314,53.1992,500.4314,53.1992,507.4314,75.6875,510.4314,75.6875,510.4314,156.1992,86.4314,156.1992,86.4314,53.1992" style="stroke: #000000; stroke-width: 2.0;"/><line style="stroke: #000000; stroke-width: 2.0;" x1="86.4314" x2="507.4314" y1="75.6875" y2="75.6875"/><text fill="#000000" font-family="sans-serif" font-size="14" font-weight="bold" lengthAdjust="spacingAndGlyphs" textLength="408" x="90.4314" y="68.7344">nl.openweb.graphql-endpoint.money-transfer-service.clj</text><rect fill="#FEFECE" filter="url(#f1)" height="36.4883" style="stroke: #A80036; stroke-width: 1.5;" width="83" x="402.9314" y="96.1992"/><rect fill="#FEFECE" height="5" style="stroke: #A80036; stroke-width: 1.5;" width="10" x="397.9314" y="101.1992"/><rect fill="#FEFECE" height="5" style="stroke: #A80036; stroke-width: 1.5;" width="10" x="397.9314" y="122.6875"/><text fill="#000000" font-family="sans-serif" font-size="14" lengthAdjust="spacingAndGlyphs" textLength="63" x="412.9314" y="119.7344">producer</text><rect fill="#FEFECE" filter="url(#f1)" height="36.4883" style="stroke: #A80036; stroke-width: 1.5;" width="88" x="279.4314" y="96.1992"/><rect fill="#FEFECE" height="5" style="stroke: #A80036; stroke-width: 1.5;" width="10" x="274.4314" y="101.1992"/><rect fill="#FEFECE" height="5" style="stroke: #A80036; stroke-width: 1.5;" width="10" x="274.4314" y="122.6875"/><text fill="#000000" font-family="sans-serif" font-size="14" lengthAdjust="spacingAndGlyphs" textLength="68" x="289.4314" y="119.7344">consumer</text><rect fill="#FFA500" filter="url(#f1)" height="36.4883" style="stroke: #A80036; stroke-width: 1.5;" width="108" x="417.4314" y="311.6992"/><rect fill="#FFA500" height="5" style="stroke: #A80036; stroke-width: 1.5;" width="10" x="412.4314" y="316.6992"/><rect fill="#FFA500" height="5" style="stroke: #A80036; stroke-width: 1.5;" width="10" x="412.4314" y="338.1875"/><text fill="#000000" font-family="sans-serif" font-size="14" lengthAdjust="spacingAndGlyphs" textLength="88" x="427.4314" y="335.2344">Kafka cluster</text><ellipse cx="340.4314" cy="298.1992" fill="#FEFECE" filter="url(#f1)" rx="8" ry="8" style="stroke: #A80036; stroke-width: 2.0;"/><path d="M340.4314,306.1992 L340.4314,333.1992 M327.4314,314.1992 L353.4314,314.1992 M340.4314,333.1992 L327.4314,348.1992 M340.4314,333.1992 L353.4314,348.1992 " fill="#FEFECE" filter="url(#f1)" style="stroke: #A80036; stroke-width: 2.0;"/><text fill="#000000" font-family="sans-serif" font-size="14" lengthAdjust="spacingAndGlyphs" textLength="37" x="321.9314" y="368.7344">client</text><rect fill="#FFFF00" filter="url(#f1)" height="36.4883" style="stroke: #A80036; stroke-width: 1.5;" width="138" x="47.4314" y="311.6992"/><rect fill="#FFFF00" height="5" style="stroke: #A80036; stroke-width: 1.5;" width="10" x="42.4314" y="316.6992"/><rect fill="#FFFF00" height="5" style="stroke: #A80036; stroke-width: 1.5;" width="10" x="42.4314" y="338.1875"/><text fill="#000000" font-family="sans-serif" font-size="14" lengthAdjust="spacingAndGlyphs" textLength="118" x="57.4314" y="335.2344">schema-provider</text><path d="M336.6083,136.8816 C343.7146,149.4679 352.4359,165.5052 359.4314,180.1992 C375.5384,214.0314 369.8008,227.6024 391.4314,258.1992 C406.2708,279.1896 428.3586,298.3268 445.5679,311.5092 " fill="none" style="stroke: #A80036; stroke-width: 1.0;"/><polygon fill="#A80036" points="334.0694,132.4096,335.0343,142.2111,336.538,136.7577,341.9913,138.2614,334.0694,132.4096" style="stroke: #A80036; stroke-width: 1.0;"/><text fill="#000000" font-family="sans-serif" font-size="13" lengthAdjust="spacingAndGlyphs" textLength="64" x="392.4314" y="201.2676">consumes</text><text fill="#000000" font-family="sans-serif" font-size="13" lengthAdjust="spacingAndGlyphs" textLength="159" x="392.4314" y="216.5781">MoneyTransferConfirmed</text><text fill="#000000" font-family="sans-serif" font-size="13" lengthAdjust="spacingAndGlyphs" textLength="23" x="392.4314" y="231.8887">and</text><text fill="#000000" font-family="sans-serif" font-size="13" lengthAdjust="spacingAndGlyphs" textLength="130" x="392.4314" y="247.1992">MoneyTransferFailed</text><path d="M190.4987,329.6992 C234.1898,329.6992 286.6138,329.6992 316.4729,329.6992 " fill="none" style="stroke: #A80036; stroke-width: 1.0;"/><polygon fill="#A80036" points="321.7785,329.6992,312.7785,325.6992,316.7785,329.6992,312.7785,333.6992,321.7785,329.6992" style="stroke: #A80036; stroke-width: 1.0;"/><polygon fill="#A80036" points="185.4666,329.6992,194.4666,333.6992,190.4666,329.6992,194.4666,325.6992,185.4666,329.6992" style="stroke: #A80036; stroke-width: 1.0;"/><text fill="#000000" font-family="sans-serif" font-size="13" lengthAdjust="spacingAndGlyphs" textLength="100" x="203.6814" y="308.2676">request transfer</text><text fill="#000000" font-family="sans-serif" font-size="13" lengthAdjust="spacingAndGlyphs" textLength="77" x="203.6814" y="323.5781">using server</text><path d="M86.3247,118.0951 C86.166,118.1763 86.0054,118.2587 85.8429,118.3423 C84.5431,119.0114 83.1233,119.7589 81.6032,120.5832 C75.5228,123.8802 67.8372,128.404 59.8017,134.0368 C43.7307,145.3024 26.26,161.0041 17.4314,180.1992 C2.9457,211.6943 1.6494,227.3333 17.4314,258.1992 C29.6412,282.0785 53.9576,299.8168 75.4346,311.6525 " fill="none" style="stroke: #A80036; stroke-width: 1.0;"/><polygon fill="#A80036" points="86.3247,118.0951,76.4905,118.6325,81.8732,120.3721,80.1337,125.7548,86.3247,118.0951" style="stroke: #A80036; stroke-width: 1.0;"/><text fill="#000000" font-family="sans-serif" font-size="13" lengthAdjust="spacingAndGlyphs" textLength="113" x="25.9314" y="193.7676">executes function</text><text fill="#000000" font-family="sans-serif" font-size="13" lengthAdjust="spacingAndGlyphs" textLength="83" x="40.9314" y="209.0781">resulting in a</text><text fill="#000000" font-family="sans-serif" font-size="13" lengthAdjust="spacingAndGlyphs" textLength="76" x="46.4314" y="224.3887">transfer and</text><text fill="#000000" font-family="sans-serif" font-size="13" lengthAdjust="spacingAndGlyphs" textLength="128" x="18.4314" y="239.6992">creates subscription</text><text fill="#000000" font-family="sans-serif" font-size="13" lengthAdjust="spacingAndGlyphs" textLength="82" x="41.4314" y="255.0098">for the result</text><path d="M313.8209,132.2123 C305.5664,145.7164 292.3305,163.3347 275.4314,172.1992 C257.2583,181.732 199.9636,168.041 183.4314,180.1992 C153.2451,202.3991 166.7881,224.0199 151.4314,258.1992 C144.0017,274.7356 134.9968,293.0977 127.9815,307.073 " fill="none" style="stroke: #A80036; stroke-width: 1.0;"/><polygon fill="#A80036" points="125.6839,311.6353,133.3046,305.3963,127.9329,307.1697,126.1595,301.798,125.6839,311.6353" style="stroke: #A80036; stroke-width: 1.0;"/><text fill="#000000" font-family="sans-serif" font-size="13" lengthAdjust="spacingAndGlyphs" textLength="166" x="184.4314" y="216.7676">send MoneyTransferResult</text><text fill="#000000" font-family="sans-serif" font-size="13" lengthAdjust="spacingAndGlyphs" textLength="149" x="192.9314" y="232.0781">for active subscriptions</text><path d="M485.9795,125.9365 C512.3736,135.7863 544.473,152.7588 560.4314,180.1992 C577.8594,210.1666 575.4166,226.9386 560.4314,258.1992 C550.1639,279.6184 530.0048,296.6529 511.4657,308.7137 " fill="none" style="stroke: #A80036; stroke-width: 1.0;"/><polygon fill="#A80036" points="506.7943,311.6725,516.5378,310.236,511.0183,308.9971,512.2571,303.4776,506.7943,311.6725" style="stroke: #A80036; stroke-width: 1.0;"/><text fill="#000000" font-family="sans-serif" font-size="13" lengthAdjust="spacingAndGlyphs" textLength="58" x="573.4314" y="216.7676">produces</text><text fill="#000000" font-family="sans-serif" font-size="13" lengthAdjust="spacingAndGlyphs" textLength="144" x="573.4314" y="232.0781">ConfirmMoneyTransfer</text></g></svg>