<?xml version="1.0" encoding="UTF-8" standalone="yes"?><svg xmlns="http://www.w3.org/2000/svg" xmlns:xlink="http://www.w3.org/1999/xlink" height="895px" style="width:1340px;height:895px;" version="1.1" viewBox="0 0 1340 895" width="1340px"><defs><filter height="300%" id="f1" width="300%" x="-1" y="-1"><feGaussianBlur result="blurOut" stdDeviation="2.0"/><feColorMatrix in="blurOut" result="blurOut2" type="matrix" values="0 0 0 0 0 0 0 0 0 0 0 0 0 0 0 0 0 0 .4 0"/><feOffset dx="4.0" dy="4.0" in="blurOut2" result="blurOut3"/><feBlend in="SourceGraphic" in2="blurOut3" mode="normal"/></filter></defs><g><text fill="#000000" font-family="sans-serif" font-size="18" lengthAdjust="spacingAndGlyphs" textLength="132" x="608.5" y="17.4023">All connections</text><rect fill="#FFA500" filter="url(#f1)" height="36.4883" style="stroke: #A80036; stroke-width: 1.5;" width="108" x="304.5" y="477.2895"/><rect fill="#FFA500" height="5" style="stroke: #A80036; stroke-width: 1.5;" width="10" x="299.5" y="482.2895"/><rect fill="#FFA500" height="5" style="stroke: #A80036; stroke-width: 1.5;" width="10" x="299.5" y="503.7778"/><text fill="#000000" font-family="sans-serif" font-size="14" lengthAdjust="spacingAndGlyphs" textLength="88" x="314.5" y="500.8247">Kafka cluster</text><rect fill="#008000" filter="url(#f1)" height="36.4883" style="stroke: #A80036; stroke-width: 1.5;" width="143" x="779" y="614.2895"/><rect fill="#008000" height="5" style="stroke: #A80036; stroke-width: 1.5;" width="10" x="774" y="619.2895"/><rect fill="#008000" height="5" style="stroke: #A80036; stroke-width: 1.5;" width="10" x="774" y="640.7778"/><text fill="#000000" font-family="sans-serif" font-size="14" lengthAdjust="spacingAndGlyphs" textLength="123" x="789" y="637.8247">Zookeeper cluster</text><rect fill="#FEFECE" filter="url(#f1)" height="36.4883" style="stroke: #A80036; stroke-width: 1.5;" width="129" x="1202" y="406.2895"/><rect fill="#FEFECE" height="5" style="stroke: #A80036; stroke-width: 1.5;" width="10" x="1197" y="411.2895"/><rect fill="#FEFECE" height="5" style="stroke: #A80036; stroke-width: 1.5;" width="10" x="1197" y="432.7778"/><text fill="#000000" font-family="sans-serif" font-size="14" lengthAdjust="spacingAndGlyphs" textLength="109" x="1212" y="429.8247">Schema registry</text><rect fill="#FEFECE" filter="url(#f1)" height="36.4883" style="stroke: #A80036; stroke-width: 1.5;" width="110" x="6" y="59.2895"/><rect fill="#FEFECE" height="5" style="stroke: #A80036; stroke-width: 1.5;" width="10" x="1" y="64.2895"/><rect fill="#FEFECE" height="5" style="stroke: #A80036; stroke-width: 1.5;" width="10" x="1" y="85.7778"/><text fill="#000000" font-family="sans-serif" font-size="14" lengthAdjust="spacingAndGlyphs" textLength="90" x="16" y="82.8247">Synchronizer</text><rect fill="#FEFECE" filter="url(#f1)" height="36.4883" style="stroke: #A80036; stroke-width: 1.5;" width="87" x="17.5" y="143.2895"/><rect fill="#FEFECE" height="5" style="stroke: #A80036; stroke-width: 1.5;" width="10" x="12.5" y="148.2895"/><rect fill="#FEFECE" height="5" style="stroke: #A80036; stroke-width: 1.5;" width="10" x="12.5" y="169.7778"/><text fill="#000000" font-family="sans-serif" font-size="14" lengthAdjust="spacingAndGlyphs" textLength="67" x="27.5" y="166.8247">Heartbeat</text><rect fill="#FEFECE" filter="url(#f1)" height="36.4883" style="stroke: #A80036; stroke-width: 1.5;" width="163" x="769" y="538.2895"/><rect fill="#FEFECE" height="5" style="stroke: #A80036; stroke-width: 1.5;" width="10" x="764" y="543.2895"/><rect fill="#FEFECE" height="5" style="stroke: #A80036; stroke-width: 1.5;" width="10" x="764" y="564.7778"/><text fill="#000000" font-family="sans-serif" font-size="14" lengthAdjust="spacingAndGlyphs" textLength="143" x="779" y="561.8247">Command generator</text><rect fill="#FEFECE" filter="url(#f1)" height="36.4883" style="stroke: #A80036; stroke-width: 1.5;" width="148" x="776.5" y="303.2895"/><rect fill="#FEFECE" height="5" style="stroke: #A80036; stroke-width: 1.5;" width="10" x="771.5" y="308.2895"/><rect fill="#FEFECE" height="5" style="stroke: #A80036; stroke-width: 1.5;" width="10" x="771.5" y="329.7778"/><text fill="#000000" font-family="sans-serif" font-size="14" lengthAdjust="spacingAndGlyphs" textLength="128" x="786.5" y="326.8247">Command handler</text><rect fill="#FEFECE" filter="url(#f1)" height="36.4883" style="stroke: #A80036; stroke-width: 1.5;" width="146" x="777.5" y="786.2895"/><rect fill="#FEFECE" height="5" style="stroke: #A80036; stroke-width: 1.5;" width="10" x="772.5" y="791.2895"/><rect fill="#FEFECE" height="5" style="stroke: #A80036; stroke-width: 1.5;" width="10" x="772.5" y="812.7778"/><text fill="#000000" font-family="sans-serif" font-size="14" lengthAdjust="spacingAndGlyphs" textLength="126" x="787.5" y="809.8247">GraphQL endpoint</text><rect fill="#FEFECE" filter="url(#f1)" height="36.4883" style="stroke: #A80036; stroke-width: 1.5;" width="129" x="786" y="685.2895"/><rect fill="#FEFECE" height="5" style="stroke: #A80036; stroke-width: 1.5;" width="10" x="781" y="690.2895"/><rect fill="#FEFECE" height="5" style="stroke: #A80036; stroke-width: 1.5;" width="10" x="781" y="711.7778"/><text fill="#000000" font-family="sans-serif" font-size="14" lengthAdjust="spacingAndGlyphs" textLength="109" x="796" y="708.8247">Frontend server</text><ellipse cx="1266.5" cy="776.7895" fill="#FEFECE" filter="url(#f1)" rx="8" ry="8" style="stroke: #A80036; stroke-width: 2.0;"/><path d="M1266.5,784.7895 L1266.5,811.7895 M1253.5,792.7895 L1279.5,792.7895 M1266.5,811.7895 L1253.5,826.7895 M1266.5,811.7895 L1279.5,826.7895 " fill="#FEFECE" filter="url(#f1)" style="stroke: #A80036; stroke-width: 2.0;"/><text fill="#000000" font-family="sans-serif" font-size="14" lengthAdjust="spacingAndGlyphs" textLength="37" x="1248" y="847.3247">client</text><path d="M313,211.7895 C313,201.7895 358.5,201.7895 358.5,201.7895 C358.5,201.7895 404,201.7895 404,211.7895 L404,233.2778 C404,243.2778 358.5,243.2778 358.5,243.2778 C358.5,243.2778 313,243.2778 313,233.2778 L313,211.7895 " fill="#FEFECE" filter="url(#f1)" style="stroke: #000000; stroke-width: 1.5;"/><path d="M313,211.7895 C313,221.7895 358.5,221.7895 358.5,221.7895 C358.5,221.7895 404,221.7895 404,211.7895 " fill="none" style="stroke: #000000; stroke-width: 1.5;"/><text fill="#000000" font-family="sans-serif" font-size="14" lengthAdjust="spacingAndGlyphs" textLength="71" x="323" y="235.3247">balancedb</text><path d="M301,842.7895 C301,832.7895 358.5,832.7895 358.5,832.7895 C358.5,832.7895 416,832.7895 416,842.7895 L416,864.2778 C416,874.2778 358.5,874.2778 358.5,874.2778 C358.5,874.2778 301,874.2778 301,864.2778 L301,842.7895 " fill="#FEFECE" filter="url(#f1)" style="stroke: #000000; stroke-width: 1.5;"/><path d="M301,842.7895 C301,852.7895 358.5,852.7895 358.5,852.7895 C358.5,852.7895 416,852.7895 416,842.7895 " fill="none" style="stroke: #000000; stroke-width: 1.5;"/><text fill="#000000" font-family="sans-serif" font-size="14" lengthAdjust="spacingAndGlyphs" textLength="95" x="311" y="866.3247">transactiondb</text><path d="M363.6482,513.516 C373.6116,544.8908 398.8202,608.2396 446,634.2895 C551.9372,692.7817 698.5309,671.6238 783.0497,651.5413 " fill="none" style="stroke: #A80036; stroke-width: 1.0; stroke-dasharray: 7.0,7.0;"/><polygon fill="#A80036" points="788.0259,650.3431,778.3396,648.5613,783.1649,651.5137,780.2125,656.339,788.0259,650.3431" style="stroke: #A80036; stroke-width: 1.0;"/><text fill="#000000" font-family="sans-serif" font-size="13" lengthAdjust="spacingAndGlyphs" textLength="136" x="524.5" y="630.8579">get and set meta data</text><path d="M97.1323,95.5057 C143.7583,120.7734 224.404,170.7335 271,235.2895 C325.8638,311.3 348.0877,424.1255 355.4302,472.2216 " fill="none" style="stroke: #A80036; stroke-width: 1.0; stroke-dasharray: 7.0,7.0;"/><polygon fill="#A80036" points="356.1744,477.2163,358.8044,467.7251,355.4375,472.2709,350.8917,468.9041,356.1744,477.2163" style="stroke: #A80036; stroke-width: 1.0;"/><text fill="#000000" font-family="sans-serif" font-size="13" lengthAdjust="spacingAndGlyphs" textLength="88" x="164.5" y="124.8579">creates topics</text><path d="M116.1349,68.3895 C292.0223,43.2535 847.2373,-10.5158 1172,250.2895 C1221.6882,290.1923 1248.9682,363.5486 1260.2376,400.9827 " fill="none" style="stroke: #A80036; stroke-width: 1.0; stroke-dasharray: 7.0,7.0;"/><polygon fill="#A80036" points="1261.7849,406.2369,1263.0794,396.4735,1260.3724,401.4406,1255.4053,398.7336,1261.7849,406.2369" style="stroke: #A80036; stroke-width: 1.0;"/><text fill="#000000" font-family="sans-serif" font-size="13" lengthAdjust="spacingAndGlyphs" textLength="78" x="553.5" y="42.8579">set schemas</text><path d="M1201.9949,429.3334 C1033.2334,442.5295 580.5063,477.93 417.7781,490.6543 " fill="none" style="stroke: #A80036; stroke-width: 1.0;"/><polygon fill="#A80036" points="412.5803,491.0608,421.8649,494.3466,417.5651,490.6708,421.2409,486.371,412.5803,491.0608" style="stroke: #A80036; stroke-width: 1.0;"/><text fill="#000000" font-family="sans-serif" font-size="13" lengthAdjust="spacingAndGlyphs" textLength="91" x="805" y="448.8579">store schemas</text><path d="M104.6524,158.9518 C212.9984,154.0148 502.5501,146.1216 739,187.2895 C937.8557,221.912 1000.9892,217.0625 1172,324.2895 C1204.7689,344.8362 1233.8909,379.3976 1250.8696,402.0248 " fill="none" style="stroke: #A80036; stroke-width: 1.0;"/><polygon fill="#A80036" points="1253.8967,406.1049,1251.7465,396.4936,1250.9175,402.0894,1245.3217,401.2604,1253.8967,406.1049" style="stroke: #A80036; stroke-width: 1.0;"/><text fill="#000000" font-family="sans-serif" font-size="13" lengthAdjust="spacingAndGlyphs" textLength="79" x="553" y="154.8579">get schemas</text><path d="M932.2556,558.0862 C999.6232,556.5348 1096.0788,547.1786 1172,511.2895 C1203.7538,496.279 1232.205,466.8078 1249.3982,446.351 " fill="none" style="stroke: #A80036; stroke-width: 1.0;"/><polygon fill="#A80036" points="1252.6844,442.3868,1243.861,446.7626,1249.4933,446.2361,1250.0198,451.8684,1252.6844,442.3868" style="stroke: #A80036; stroke-width: 1.0;"/><text fill="#000000" font-family="sans-serif" font-size="13" lengthAdjust="spacingAndGlyphs" textLength="79" x="1027.5" y="507.8579">get schemas</text><path d="M923.4377,339.3486 C1000.5068,358.4306 1121.1603,388.304 1196.9299,407.0642 " fill="none" style="stroke: #A80036; stroke-width: 1.0;"/><polygon fill="#A80036" points="1201.8549,408.2836,1194.0802,402.2376,1197.0015,407.0818,1192.1573,410.003,1201.8549,408.2836" style="stroke: #A80036; stroke-width: 1.0;"/><text fill="#000000" font-family="sans-serif" font-size="13" lengthAdjust="spacingAndGlyphs" textLength="79" x="1027.5" y="345.8579">get schemas</text><path d="M923.6989,794.8168 C1017.1231,782.5836 1167.3313,762.3726 1172,758.2895 C1219.8571,716.4347 1253.0227,516.6712 1263.2032,447.7395 " fill="none" style="stroke: #A80036; stroke-width: 1.0;"/><polygon fill="#A80036" points="1263.952,442.6235,1258.6907,450.9493,1263.2279,447.5708,1266.6064,452.1079,1263.952,442.6235" style="stroke: #A80036; stroke-width: 1.0;"/><text fill="#000000" font-family="sans-serif" font-size="13" lengthAdjust="spacingAndGlyphs" textLength="79" x="1027.5" y="754.8579">get schemas</text><path d="M77.4187,179.7226 C128.3148,236.8631 283.332,410.8992 338.6357,472.9881 " fill="none" style="stroke: #A80036; stroke-width: 1.0;"/><polygon fill="#A80036" points="342.1321,476.9134,339.133,467.5323,338.8065,473.1797,333.1591,472.8532,342.1321,476.9134" style="stroke: #A80036; stroke-width: 1.0;"/><text fill="#000000" font-family="sans-serif" font-size="13" lengthAdjust="spacingAndGlyphs" textLength="123" x="147" y="256.8579">produces Heartbeat</text><path d="M370.0401,513.6488 C384.6928,535.0339 412.1819,569.2251 446,583.2895 C561.2566,631.2228 710.9612,599.7809 792.0634,575.9392 " fill="none" style="stroke: #A80036; stroke-width: 1.0;"/><polygon fill="#A80036" points="797.3052,574.3807,787.5384,573.1116,792.5126,575.8057,789.8185,580.7799,797.3052,574.3807" style="stroke: #A80036; stroke-width: 1.0;"/><text fill="#000000" font-family="sans-serif" font-size="13" lengthAdjust="spacingAndGlyphs" textLength="129" x="528" y="579.8579">consumes Heartbeat</text><path d="M768.6427,556.5729 C686.294,555.3784 556.0861,549.4383 446,526.2895 C433.1908,523.596 419.702,519.4913 407.2542,515.1419 " fill="none" style="stroke: #A80036; stroke-width: 1.0;"/><polygon fill="#A80036" points="402.3562,513.3997,409.4951,520.1847,407.067,515.0754,412.1763,512.6473,402.3562,513.3997" style="stroke: #A80036; stroke-width: 1.0;"/><text fill="#000000" font-family="sans-serif" font-size="13" lengthAdjust="spacingAndGlyphs" textLength="218" x="483.5" y="507.8579">produces ConfirmAccountCreation</text><text fill="#000000" font-family="sans-serif" font-size="13" lengthAdjust="spacingAndGlyphs" textLength="171" x="509" y="523.1684">and ConfirmMoneyTransfer</text><path d="M361.9739,477.1478 C369.8235,441.7899 392.5778,364.2416 446,331.2895 C498.475,298.9216 669.1709,306.2407 771.2897,314.0393 " fill="none" style="stroke: #A80036; stroke-width: 1.0;"/><polygon fill="#A80036" points="776.402,314.4345,767.7371,309.7527,771.4169,314.0491,767.1204,317.7288,776.402,314.4345" style="stroke: #A80036; stroke-width: 1.0;"/><text fill="#000000" font-family="sans-serif" font-size="13" lengthAdjust="spacingAndGlyphs" textLength="224" x="480.5" y="289.8579">consumes ConfirmAccountCreation</text><text fill="#000000" font-family="sans-serif" font-size="13" lengthAdjust="spacingAndGlyphs" textLength="171" x="509" y="305.1684">and ConfirmMoneyTransfer</text><path d="M835.7201,339.4673 C816.2023,362.031 779.5319,399.6822 739,417.2895 C618.8505,469.4832 571.2845,411.0287 446,449.2895 C426.7957,455.1543 406.8686,465.2667 390.8906,474.5191 " fill="none" style="stroke: #A80036; stroke-width: 1.0;"/><polygon fill="#A80036" points="386.4926,477.1017,396.2789,475.9936,390.8042,474.5699,392.2279,469.0951,386.4926,477.1017" style="stroke: #A80036; stroke-width: 1.0;"/><text fill="#000000" font-family="sans-serif" font-size="13" lengthAdjust="spacingAndGlyphs" textLength="237" x="474" y="352.8579">produces AccountCreationConfirmed,</text><text fill="#000000" font-family="sans-serif" font-size="13" lengthAdjust="spacingAndGlyphs" textLength="146" x="519.5" y="368.1684">AccountCreationFailed,</text><text fill="#000000" font-family="sans-serif" font-size="13" lengthAdjust="spacingAndGlyphs" textLength="163" x="511" y="383.479">MoneyTransferConfirmed,</text><text fill="#000000" font-family="sans-serif" font-size="13" lengthAdjust="spacingAndGlyphs" textLength="157" x="514" y="398.7895">MoneyTransferFailed and</text><text fill="#000000" font-family="sans-serif" font-size="13" lengthAdjust="spacingAndGlyphs" textLength="102" x="541.5" y="414.1001">BalanceChanged</text><path d="M360.9015,513.43 C369.2448,573.4003 399.0515,763.4914 446,799.2895 C495.2915,836.8741 668.9279,825.0045 771.9939,814.0114 " fill="none" style="stroke: #A80036; stroke-width: 1.0;"/><polygon fill="#A80036" points="777.1525,813.4556,767.7757,810.4429,772.1813,813.9913,768.6329,818.3969,777.1525,813.4556" style="stroke: #A80036; stroke-width: 1.0;"/><text fill="#000000" font-family="sans-serif" font-size="13" lengthAdjust="spacingAndGlyphs" textLength="228" x="478.5" y="765.8579">consumes ConfirmAccountCreation,</text><text fill="#000000" font-family="sans-serif" font-size="13" lengthAdjust="spacingAndGlyphs" textLength="171" x="507" y="781.1684">ConfirmMoneyTransfer and</text><text fill="#000000" font-family="sans-serif" font-size="13" lengthAdjust="spacingAndGlyphs" textLength="102" x="541.5" y="796.479">BalanceChanged</text><path d="M821.3839,786.1356 C799.5408,773.4101 768.4564,757.1492 739,748.2895 C676.2049,729.4025 498.0434,753.1824 446,713.2895 C382.889,664.913 365.1552,563.7616 360.287,518.2931 " fill="none" style="stroke: #A80036; stroke-width: 1.0;"/><polygon fill="#A80036" points="359.7796,513.2904,356.7085,522.6482,360.2843,518.2649,364.6676,521.8407,359.7796,513.2904" style="stroke: #A80036; stroke-width: 1.0;"/><text fill="#000000" font-family="sans-serif" font-size="13" lengthAdjust="spacingAndGlyphs" textLength="218" x="483.5" y="694.8579">produces ConfirmAccountCreation</text><text fill="#000000" font-family="sans-serif" font-size="13" lengthAdjust="spacingAndGlyphs" textLength="171" x="509" y="710.1684">and ConfirmMoneyTransfer</text><path d="M915.2409,698.7405 C982.025,696.4367 1087.9896,699.5445 1172,733.2895 C1199.8269,744.4669 1226.086,766.6004 1243.8274,783.9391 " fill="none" style="stroke: #A80036; stroke-width: 1.0;"/><polygon fill="#A80036" points="1247.7036,787.7841,1244.1308,778.6062,1244.1537,784.263,1238.4969,784.2859,1247.7036,787.7841" style="stroke: #A80036; stroke-width: 1.0;"/><text fill="#000000" font-family="sans-serif" font-size="13" lengthAdjust="spacingAndGlyphs" textLength="146" x="994" y="695.8579">provides frontend code</text><path d="M1247.833,824.7295 C1229.8352,839.3989 1201.112,859.8283 1172,868.2895 C1082.3754,894.3383 1052.1835,892.3322 962,868.2895 C930.8633,859.9885 899.3833,840.6949 877.8505,825.4477 " fill="none" style="stroke: #A80036; stroke-width: 1.0;"/><polygon fill="#A80036" points="873.6796,822.4566,878.6622,830.9521,877.7428,825.3705,883.3244,824.4511,873.6796,822.4566" style="stroke: #A80036; stroke-width: 1.0;"/><text fill="#000000" font-family="sans-serif" font-size="13" lengthAdjust="spacingAndGlyphs" textLength="208" x="963" y="864.8579">create accounts and transactions</text><path d="M923.641,809.5392 C936.4205,810.2684 949.5928,810.9004 962,811.2895 C1055.2875,814.2149 1078.6784,812.7704 1172,811.2895 C1196.0032,810.9086 1223.423,809.9838 1242.5216,809.2609 " fill="none" style="stroke: #A80036; stroke-width: 1.0;"/><polygon fill="#A80036" points="1247.678,809.0629,1238.531,805.4115,1242.6817,809.2549,1238.8382,813.4056,1247.678,809.0629" style="stroke: #A80036; stroke-width: 1.0;"/><text fill="#000000" font-family="sans-serif" font-size="13" lengthAdjust="spacingAndGlyphs" textLength="132" x="1001" y="807.8579">provides information</text><path d="M409.377,224.6598 C498.4315,229.2361 678.8162,240.5268 739,259.2895 C768.7355,268.5598 799.4476,286.3538 821.0907,300.5099 " fill="none" style="stroke: #A80036; stroke-width: 1.0;"/><polygon fill="#A80036" points="825.2954,303.289,819.9928,294.9895,821.1242,300.5321,815.5816,301.6635,825.2954,303.289" style="stroke: #A80036; stroke-width: 1.0;"/><polygon fill="#A80036" points="404.1654,224.3943,412.9501,228.8474,409.1589,224.6489,413.3574,220.8577,404.1654,224.3943" style="stroke: #A80036; stroke-width: 1.0;"/><text fill="#000000" font-family="sans-serif" font-size="13" lengthAdjust="spacingAndGlyphs" textLength="291" x="447" y="208.8579">keep track witch messages have been handled</text><text fill="#000000" font-family="sans-serif" font-size="13" lengthAdjust="spacingAndGlyphs" textLength="113" x="536" y="224.1684">keep the balances</text><path d="M421.4566,862.3205 C497.6635,871.3082 629.4092,880.588 739,856.2895 C766.45,850.2033 795.1516,836.627 816.5596,824.8728 " fill="none" style="stroke: #A80036; stroke-width: 1.0;"/><polygon fill="#A80036" points="821.014,822.3955,811.2044,823.274,816.6443,824.8257,815.0926,830.2655,821.014,822.3955" style="stroke: #A80036; stroke-width: 1.0;"/><polygon fill="#A80036" points="416.0668,861.6743,424.5266,866.7174,421.0312,862.2696,425.479,858.7743,416.0668,861.6743" style="stroke: #A80036; stroke-width: 1.0;"/><text fill="#000000" font-family="sans-serif" font-size="13" lengthAdjust="spacingAndGlyphs" textLength="174" x="505.5" y="852.8579">stores/queries transactions</text></g></svg>