<?xml version="1.0" encoding="UTF-8" standalone="yes"?><svg xmlns="http://www.w3.org/2000/svg" xmlns:xlink="http://www.w3.org/1999/xlink" height="536px" style="width:1034px;height:536px;" version="1.1" viewBox="0 0 1034 536" width="1034px"><defs><filter height="300%" id="f1" width="300%" x="-1" y="-1"><feGaussianBlur result="blurOut" stdDeviation="2.0"/><feColorMatrix in="blurOut" result="blurOut2" type="matrix" values="0 0 0 0 0 0 0 0 0 0 0 0 0 0 0 0 0 0 .4 0"/><feOffset dx="4.0" dy="4.0" in="blurOut2" result="blurOut3"/><feBlend in="SourceGraphic" in2="blurOut3" mode="normal"/></filter></defs><g><text fill="#000000" font-family="sans-serif" font-size="18" lengthAdjust="spacingAndGlyphs" textLength="132" x="455.5" y="17.4023">All connections</text><rect fill="#FFA500" filter="url(#f1)" height="36.4883" style="stroke: #A80036; stroke-width: 1.5;" width="108" x="459.5" y="286.6992"/><rect fill="#FFA500" height="5" style="stroke: #A80036; stroke-width: 1.5;" width="10" x="454.5" y="291.6992"/><rect fill="#FFA500" height="5" style="stroke: #A80036; stroke-width: 1.5;" width="10" x="454.5" y="313.1875"/><text fill="#000000" font-family="sans-serif" font-size="14" lengthAdjust="spacingAndGlyphs" textLength="88" x="469.5" y="310.2344">Kafka cluster</text><rect fill="#FFA500" filter="url(#f1)" height="36.4883" style="stroke: #A80036; stroke-width: 1.5;" width="143" x="16" y="410.6992"/><rect fill="#FFA500" height="5" style="stroke: #A80036; stroke-width: 1.5;" width="10" x="11" y="415.6992"/><rect fill="#FFA500" height="5" style="stroke: #A80036; stroke-width: 1.5;" width="10" x="11" y="437.1875"/><text fill="#000000" font-family="sans-serif" font-size="14" lengthAdjust="spacingAndGlyphs" textLength="123" x="26" y="434.2344">Zookeeper cluster</text><rect fill="#FFA500" filter="url(#f1)" height="36.4883" style="stroke: #A80036; stroke-width: 1.5;" width="129" x="449" y="137.6992"/><rect fill="#FFA500" height="5" style="stroke: #A80036; stroke-width: 1.5;" width="10" x="444" y="142.6992"/><rect fill="#FFA500" height="5" style="stroke: #A80036; stroke-width: 1.5;" width="10" x="444" y="164.1875"/><text fill="#000000" font-family="sans-serif" font-size="14" lengthAdjust="spacingAndGlyphs" textLength="109" x="459" y="161.2344">Schema registry</text><rect fill="#FFFF00" filter="url(#f1)" height="36.4883" style="stroke: #A80036; stroke-width: 1.5;" width="110" x="32.5" y="200.6992"/><rect fill="#FFFF00" height="5" style="stroke: #A80036; stroke-width: 1.5;" width="10" x="27.5" y="205.6992"/><rect fill="#FFFF00" height="5" style="stroke: #A80036; stroke-width: 1.5;" width="10" x="27.5" y="227.1875"/><text fill="#000000" font-family="sans-serif" font-size="14" lengthAdjust="spacingAndGlyphs" textLength="90" x="42.5" y="224.2344">Synchronizer</text><rect fill="#FFFF00" filter="url(#f1)" height="36.4883" style="stroke: #A80036; stroke-width: 1.5;" width="87" x="44" y="51.6992"/><rect fill="#FFFF00" height="5" style="stroke: #A80036; stroke-width: 1.5;" width="10" x="39" y="56.6992"/><rect fill="#FFFF00" height="5" style="stroke: #A80036; stroke-width: 1.5;" width="10" x="39" y="78.1875"/><text fill="#000000" font-family="sans-serif" font-size="14" lengthAdjust="spacingAndGlyphs" textLength="67" x="54" y="75.2344">Heartbeat</text><rect fill="#FFFF00" filter="url(#f1)" height="36.4883" style="stroke: #A80036; stroke-width: 1.5;" width="163" x="6" y="280.6992"/><rect fill="#FFFF00" height="5" style="stroke: #A80036; stroke-width: 1.5;" width="10" x="1" y="285.6992"/><rect fill="#FFFF00" height="5" style="stroke: #A80036; stroke-width: 1.5;" width="10" x="1" y="307.1875"/><text fill="#000000" font-family="sans-serif" font-size="14" lengthAdjust="spacingAndGlyphs" textLength="143" x="16" y="304.2344">Command generator</text><rect fill="#FFFF00" filter="url(#f1)" height="36.4883" style="stroke: #A80036; stroke-width: 1.5;" width="148" x="877" y="151.6992"/><rect fill="#FFFF00" height="5" style="stroke: #A80036; stroke-width: 1.5;" width="10" x="872" y="156.6992"/><rect fill="#FFFF00" height="5" style="stroke: #A80036; stroke-width: 1.5;" width="10" x="872" y="178.1875"/><text fill="#000000" font-family="sans-serif" font-size="14" lengthAdjust="spacingAndGlyphs" textLength="128" x="887" y="175.2344">Command handler</text><rect fill="#FFFF00" filter="url(#f1)" height="36.4883" style="stroke: #A80036; stroke-width: 1.5;" width="146" x="878" y="404.6992"/><rect fill="#FFFF00" height="5" style="stroke: #A80036; stroke-width: 1.5;" width="10" x="873" y="409.6992"/><rect fill="#FFFF00" height="5" style="stroke: #A80036; stroke-width: 1.5;" width="10" x="873" y="431.1875"/><text fill="#000000" font-family="sans-serif" font-size="14" lengthAdjust="spacingAndGlyphs" textLength="126" x="888" y="428.2344">GraphQL endpoint</text><rect fill="#90EE90" filter="url(#f1)" height="36.4883" style="stroke: #A80036; stroke-width: 1.5;" width="129" x="23" y="481.6992"/><rect fill="#90EE90" height="5" style="stroke: #A80036; stroke-width: 1.5;" width="10" x="18" y="486.6992"/><rect fill="#90EE90" height="5" style="stroke: #A80036; stroke-width: 1.5;" width="10" x="18" y="508.1875"/><text fill="#000000" font-family="sans-serif" font-size="14" lengthAdjust="spacingAndGlyphs" textLength="109" x="33" y="505.2344">Frontend server</text><ellipse cx="513.5" cy="465.1992" fill="#FEFECE" filter="url(#f1)" rx="8" ry="8" style="stroke: #A80036; stroke-width: 2.0;"/><path d="M513.5,473.1992 L513.5,500.1992 M500.5,481.1992 L526.5,481.1992 M513.5,500.1992 L500.5,515.1992 M513.5,500.1992 L526.5,515.1992 " fill="#FEFECE" filter="url(#f1)" style="stroke: #A80036; stroke-width: 2.0;"/><text fill="#000000" font-family="sans-serif" font-size="14" lengthAdjust="spacingAndGlyphs" textLength="37" x="495" y="535.7344">client</text><path d="M905.5,39.1992 C905.5,29.1992 951,29.1992 951,29.1992 C951,29.1992 996.5,29.1992 996.5,39.1992 L996.5,60.6875 C996.5,70.6875 951,70.6875 951,70.6875 C951,70.6875 905.5,70.6875 905.5,60.6875 L905.5,39.1992 " fill="#ADD8E6" filter="url(#f1)" style="stroke: #000000; stroke-width: 1.5;"/><path d="M905.5,39.1992 C905.5,49.1992 951,49.1992 951,49.1992 C951,49.1992 996.5,49.1992 996.5,39.1992 " fill="none" style="stroke: #000000; stroke-width: 1.5;"/><text fill="#000000" font-family="sans-serif" font-size="14" lengthAdjust="spacingAndGlyphs" textLength="71" x="915.5" y="62.7344">balancedb</text><path d="M893.5,304.1992 C893.5,294.1992 951,294.1992 951,294.1992 C951,294.1992 1008.5,294.1992 1008.5,304.1992 L1008.5,325.6875 C1008.5,335.6875 951,335.6875 951,335.6875 C951,335.6875 893.5,335.6875 893.5,325.6875 L893.5,304.1992 " fill="#ADD8E6" filter="url(#f1)" style="stroke: #000000; stroke-width: 1.5;"/><path d="M893.5,304.1992 C893.5,314.1992 951,314.1992 951,314.1992 C951,314.1992 1008.5,314.1992 1008.5,304.1992 " fill="none" style="stroke: #000000; stroke-width: 1.5;"/><text fill="#000000" font-family="sans-serif" font-size="14" lengthAdjust="spacingAndGlyphs" textLength="95" x="903.5" y="327.7344">transactiondb</text><path d="M142.5775,205.1998 C160.4954,201.1171 180.5244,196.8784 199,193.6992 C282.5599,179.3207 379.5344,168.479 443.4629,162.1287 " fill="none" style="stroke: #A80036; stroke-width: 1.0; stroke-dasharray: 7.0,7.0;"/><polygon fill="#A80036" points="448.7751,161.6038,439.4254,158.5083,443.7993,162.0955,440.2121,166.4695,448.7751,161.6038" style="stroke: #A80036; stroke-width: 1.0;"/><text fill="#000000" font-family="sans-serif" font-size="13" lengthAdjust="spacingAndGlyphs" textLength="78" x="270" y="162.2676">set schemas</text><path d="M118.1095,236.7377 C139.913,248.7019 170.3202,263.634 199,271.6992 C285.4895,296.0213 389.9209,302.7327 454.0115,304.4097 " fill="none" style="stroke: #A80036; stroke-width: 1.0; stroke-dasharray: 7.0,7.0;"/><polygon fill="#A80036" points="459.3198,304.5395,450.4203,300.3206,454.3213,304.4172,450.2247,308.3182,459.3198,304.5395" style="stroke: #A80036; stroke-width: 1.0;"/><text fill="#000000" font-family="sans-serif" font-size="13" lengthAdjust="spacingAndGlyphs" textLength="88" x="265" y="268.2676">creates topics</text><path d="M152.2002,499.2436 C248.6439,498.5644 425.6154,497.3181 489.6112,496.8674 " fill="none" style="stroke: #A80036; stroke-width: 1.0;"/><polygon fill="#A80036" points="494.7363,496.8313,485.7083,492.8949,489.7364,496.8666,485.7648,500.8947,494.7363,496.8313" style="stroke: #A80036; stroke-width: 1.0;"/><text fill="#000000" font-family="sans-serif" font-size="13" lengthAdjust="spacingAndGlyphs" textLength="146" x="236" y="493.2676">provides frontend code</text><path d="M537.3142,501.6911 C593.1123,512.3465 735.9789,533.5553 847,497.6992 C879.371,487.2445 910.153,462.5472 929.7087,444.3361 " fill="none" style="stroke: #A80036; stroke-width: 1.0;"/><polygon fill="#A80036" points="933.4673,440.7865,924.1776,444.0578,929.8321,444.2195,929.6704,449.8741,933.4673,440.7865" style="stroke: #A80036; stroke-width: 1.0;"/><polygon fill="#A80036" points="532.1901,500.6952,540.2616,506.3389,537.0982,501.6492,541.788,498.4859,532.1901,500.6952" style="stroke: #A80036; stroke-width: 1.0;"/><text fill="#000000" font-family="sans-serif" font-size="13" lengthAdjust="spacingAndGlyphs" textLength="138" x="658.5" y="479.2676">exchange information</text><text fill="#000000" font-family="sans-serif" font-size="13" lengthAdjust="spacingAndGlyphs" textLength="93" x="681" y="494.5781">using GraphQL</text><path d="M164.1404,444.6411 C234.232,455.2822 338.886,461.0179 419,421.6992 C459.3274,401.9071 488.1322,355.8734 502.6877,327.8092 " fill="none" style="stroke: #A80036; stroke-width: 1.0; stroke-dasharray: 7.0,7.0;"/><polygon fill="#A80036" points="505.0703,323.1276,497.4233,329.3343,502.8025,327.5837,504.5531,332.9629,505.0703,323.1276" style="stroke: #A80036; stroke-width: 1.0;"/><polygon fill="#A80036" points="159.1543,443.8671,167.434,449.2006,164.0951,444.6343,168.6614,441.2953,159.1543,443.8671" style="stroke: #A80036; stroke-width: 1.0;"/><text fill="#000000" font-family="sans-serif" font-size="13" lengthAdjust="spacingAndGlyphs" textLength="136" x="241" y="418.2676">get and set meta data</text><path d="M109.918,320.0761 C131.0092,338.5956 164.4376,364.0404 199,374.6992 C292.4355,403.5142 326.1482,405.343 419,374.6992 C447.66,365.2405 474.7301,343.366 492.4906,326.5676 " fill="none" style="stroke: #A80036; stroke-width: 1.0;"/><polygon fill="#A80036" points="496.3572,322.8509,487.0967,326.204,492.7524,326.3158,492.6405,331.9716,496.3572,322.8509" style="stroke: #A80036; stroke-width: 1.0;"/><polygon fill="#A80036" points="106.1259,316.7038,110.193,325.6737,109.8622,320.0265,115.5093,319.6957,106.1259,316.7038" style="stroke: #A80036; stroke-width: 1.0;"/><text fill="#000000" font-family="sans-serif" font-size="13" lengthAdjust="spacingAndGlyphs" textLength="129" x="244.5" y="325.2676">consumes Heartbeat</text><text fill="#000000" font-family="sans-serif" font-size="13" lengthAdjust="spacingAndGlyphs" textLength="183" x="217.5" y="340.5781">and ConfirmAccountCreation</text><text fill="#000000" font-family="sans-serif" font-size="13" lengthAdjust="spacingAndGlyphs" textLength="218" x="200" y="355.8887">produces ConfirmAccountCreation</text><text fill="#000000" font-family="sans-serif" font-size="13" lengthAdjust="spacingAndGlyphs" textLength="171" x="225.5" y="371.1992">and ConfirmMoneyTransfer</text><path d="M572.5968,320.6456 C642.2118,336.077 759.4547,351.3453 847,307.6992 C859.6418,301.3966 909.9752,229.6711 935.6967,192.1998 " fill="none" style="stroke: #A80036; stroke-width: 1.0;"/><polygon fill="#A80036" points="938.7072,187.8066,930.32,192.9695,935.8807,191.9311,936.9192,197.4918,938.7072,187.8066" style="stroke: #A80036; stroke-width: 1.0;"/><polygon fill="#A80036" points="567.6679,319.535,575.5686,325.4154,572.5456,320.634,577.327,317.611,567.6679,319.535" style="stroke: #A80036; stroke-width: 1.0;"/><text fill="#000000" font-family="sans-serif" font-size="13" lengthAdjust="spacingAndGlyphs" textLength="224" x="615.5" y="212.2676">consumes ConfirmAccountCreation</text><text fill="#000000" font-family="sans-serif" font-size="13" lengthAdjust="spacingAndGlyphs" textLength="171" x="644" y="227.5781">and ConfirmMoneyTransfer</text><text fill="#000000" font-family="sans-serif" font-size="13" lengthAdjust="spacingAndGlyphs" textLength="237" x="609" y="242.8887">produces AccountCreationConfirmed,</text><text fill="#000000" font-family="sans-serif" font-size="13" lengthAdjust="spacingAndGlyphs" textLength="146" x="654.5" y="258.1992">AccountCreationFailed,</text><text fill="#000000" font-family="sans-serif" font-size="13" lengthAdjust="spacingAndGlyphs" textLength="163" x="646" y="273.5098">MoneyTransferConfirmed,</text><text fill="#000000" font-family="sans-serif" font-size="13" lengthAdjust="spacingAndGlyphs" textLength="157" x="649" y="288.8203">MoneyTransferFailed and</text><text fill="#000000" font-family="sans-serif" font-size="13" lengthAdjust="spacingAndGlyphs" textLength="102" x="676.5" y="304.1309">BalanceChanged</text><path d="M523.561,327.7622 C537.6608,356.8081 566.332,405.3716 608,425.6992 C692.6728,467.0065 803.6851,456.1138 876.1457,441.7631 " fill="none" style="stroke: #A80036; stroke-width: 1.0;"/><polygon fill="#A80036" points="881.2954,440.7246,871.6823,438.5827,876.3941,441.713,873.2637,446.4248,881.2954,440.7246" style="stroke: #A80036; stroke-width: 1.0;"/><polygon fill="#A80036" points="521.2605,322.9263,521.5148,332.7719,523.4085,327.4414,528.739,329.3351,521.2605,322.9263" style="stroke: #A80036; stroke-width: 1.0;"/><text fill="#000000" font-family="sans-serif" font-size="13" lengthAdjust="spacingAndGlyphs" textLength="228" x="613.5" y="361.2676">consumes ConfirmAccountCreation,</text><text fill="#000000" font-family="sans-serif" font-size="13" lengthAdjust="spacingAndGlyphs" textLength="171" x="642" y="376.5781">ConfirmMoneyTransfer and</text><text fill="#000000" font-family="sans-serif" font-size="13" lengthAdjust="spacingAndGlyphs" textLength="102" x="676.5" y="391.8887">BalanceChanged</text><text fill="#000000" font-family="sans-serif" font-size="13" lengthAdjust="spacingAndGlyphs" textLength="218" x="618.5" y="407.1992">produces ConfirmAccountCreation</text><text fill="#000000" font-family="sans-serif" font-size="13" lengthAdjust="spacingAndGlyphs" textLength="171" x="644" y="422.5098">and ConfirmMoneyTransfer</text><path d="M131.0544,84.9494 C151.4932,91.6973 176.2992,99.3078 199,104.6992 C295.3968,127.5935 337.5149,84.3373 419,140.6992 C422.3069,142.9865 475.8237,237.6899 500.8202,282.121 " fill="none" style="stroke: #A80036; stroke-width: 1.0;"/><polygon fill="#A80036" points="503.2915,286.5151,502.3662,276.7098,500.8405,282.157,495.3933,280.6314,503.2915,286.5151" style="stroke: #A80036; stroke-width: 1.0;"/><text fill="#000000" font-family="sans-serif" font-size="13" lengthAdjust="spacingAndGlyphs" textLength="123" x="247.5" y="101.2676">produces Heartbeat</text><path d="M951,75.6801 C951,96.7242 951,126.1069 951,146.3978 " fill="none" style="stroke: #A80036; stroke-width: 1.0;"/><polygon fill="#A80036" points="951,151.4738,955,142.4738,951,146.4738,947,142.4738,951,151.4738" style="stroke: #A80036; stroke-width: 1.0;"/><polygon fill="#A80036" points="951,70.5202,947,79.5202,951,75.5202,955,79.5202,951,70.5202" style="stroke: #A80036; stroke-width: 1.0;"/><text fill="#000000" font-family="sans-serif" font-size="13" lengthAdjust="spacingAndGlyphs" textLength="104" x="872.5" y="101.0176">keep track witch</text><text fill="#000000" font-family="sans-serif" font-size="13" lengthAdjust="spacingAndGlyphs" textLength="183" x="833" y="116.3281">messages have been handled</text><text fill="#000000" font-family="sans-serif" font-size="13" lengthAdjust="spacingAndGlyphs" textLength="113" x="868" y="131.6387">keep the balances</text><path d="M951,340.6627 C951,358.4873 951,381.9516 951,399.218 " fill="none" style="stroke: #A80036; stroke-width: 1.0;"/><polygon fill="#A80036" points="951,404.3785,955,395.3785,951,399.3785,947,395.3785,951,404.3785" style="stroke: #A80036; stroke-width: 1.0;"/><polygon fill="#A80036" points="951,335.3251,947,344.3251,951,340.3251,955,344.3251,951,335.3251" style="stroke: #A80036; stroke-width: 1.0;"/><text fill="#000000" font-family="sans-serif" font-size="13" lengthAdjust="spacingAndGlyphs" textLength="174" x="852.5" y="375.0176">stores/queries transactions</text><path d="M583.2435,140.8884 C591.5542,139.5767 599.9448,138.4595 608,137.6992 C713.7522,127.7173 741.9587,121.9044 847,137.6992 C865.6809,140.5082 885.6365,146.0055 903.0205,151.6622 " fill="none" style="stroke: #A80036; stroke-width: 1.0;"/><polygon fill="#A80036" points="578.083,141.7288,587.6089,144.2301,583.018,140.9251,586.323,136.3342,578.083,141.7288" style="stroke: #A80036; stroke-width: 1.0;"/><text fill="#000000" font-family="sans-serif" font-size="13" lengthAdjust="spacingAndGlyphs" textLength="79" x="688" y="125.2676">get schemas</text><path d="M583.2,161.7425 C678.1248,170.2767 837.452,185.8082 847,194.6992 C899.3093,243.4093 842.7068,289.9862 877,352.6992 C888.4543,373.646 908.4067,391.9669 924.7089,404.6062 " fill="none" style="stroke: #A80036; stroke-width: 1.0;"/><polygon fill="#A80036" points="578.1677,161.2912,586.7743,166.0793,583.1477,161.7379,587.4891,158.1113,578.1677,161.2912" style="stroke: #A80036; stroke-width: 1.0;"/><text fill="#000000" font-family="sans-serif" font-size="13" lengthAdjust="spacingAndGlyphs" textLength="79" x="688" y="161.2676">get schemas</text><path d="M513.5,174.119 C513.5,201.1269 513.5,251.4741 513.5,281.1405 " fill="none" style="stroke: #A80036; stroke-width: 1.0;"/><polygon fill="#A80036" points="513.5,286.4289,517.5,277.4289,513.5,281.4289,509.5,277.4289,513.5,286.4289" style="stroke: #A80036; stroke-width: 1.0;"/><text fill="#000000" font-family="sans-serif" font-size="13" lengthAdjust="spacingAndGlyphs" textLength="91" x="456.5" y="235.2676">store schemas</text><path d="M136.0789,61.7941 C202.3436,53.0717 323.7182,44.5146 419,79.6992 C451.1928,91.587 480.7014,119.1476 497.8926,137.6033 " fill="none" style="stroke: #A80036; stroke-width: 1.0;"/><polygon fill="#A80036" points="131.0135,62.4754,140.4664,65.2399,135.9689,61.8088,139.3999,57.3113,131.0135,62.4754" style="stroke: #A80036; stroke-width: 1.0;"/><text fill="#000000" font-family="sans-serif" font-size="13" lengthAdjust="spacingAndGlyphs" textLength="79" x="269.5" y="51.2676">get schemas</text><path d="M127.4188,278.4852 C148.27,268.7126 174.4891,257.6276 199,250.6992 C294.0812,223.8231 326.7455,254.081 419,218.6992 C446.6155,208.108 474.3131,188.2991 492.5155,173.7106 " fill="none" style="stroke: #A80036; stroke-width: 1.0;"/><polygon fill="#A80036" points="122.783,280.6776,132.6291,280.4457,127.303,278.5399,129.2088,273.2138,122.783,280.6776" style="stroke: #A80036; stroke-width: 1.0;"/><text fill="#000000" font-family="sans-serif" font-size="13" lengthAdjust="spacingAndGlyphs" textLength="79" x="269.5" y="215.2676">get schemas</text></g></svg>