<?xml version="1.0" encoding="UTF-8" standalone="yes"?><svg xmlns="http://www.w3.org/2000/svg" xmlns:xlink="http://www.w3.org/1999/xlink" height="270px" style="width:408px;height:270px;" version="1.1" viewBox="0 0 408 270" width="408px"><defs><filter height="300%" id="f1" width="300%" x="-1" y="-1"><feGaussianBlur result="blurOut" stdDeviation="2.0"/><feColorMatrix in="blurOut" result="blurOut2" type="matrix" values="0 0 0 0 0 0 0 0 0 0 0 0 0 0 0 0 0 0 .4 0"/><feOffset dx="4.0" dy="4.0" in="blurOut2" result="blurOut3"/><feBlend in="SourceGraphic" in2="blurOut3" mode="normal"/></filter></defs><g><text fill="#000000" font-family="sans-serif" font-size="18" lengthAdjust="spacingAndGlyphs" textLength="111" x="157.5" y="17.4023">Synchronizer</text><polygon fill="#FFFF00" filter="url(#f1)" points="36,45.1992,218,45.1992,225,67.6875,277,67.6875,277,132.1992,36,132.1992,36,45.1992" style="stroke: #000000; stroke-width: 2.0;"/><line style="stroke: #000000; stroke-width: 2.0;" x1="36" x2="225" y1="67.6875" y2="67.6875"/><text fill="#000000" font-family="sans-serif" font-size="14" font-weight="bold" lengthAdjust="spacingAndGlyphs" textLength="176" x="40" y="60.7344">nl.openweb.synchronizer</text><rect fill="#FEFECE" filter="url(#f1)" height="36.4883" style="stroke: #A80036; stroke-width: 1.5;" width="82" x="52" y="80.1992"/><rect fill="#FEFECE" height="5" style="stroke: #A80036; stroke-width: 1.5;" width="10" x="47" y="85.1992"/><rect fill="#FEFECE" height="5" style="stroke: #A80036; stroke-width: 1.5;" width="10" x="47" y="106.6875"/><text fill="#000000" font-family="sans-serif" font-size="14" lengthAdjust="spacingAndGlyphs" textLength="62" x="62" y="103.7344">admin.clj</text><rect fill="#FEFECE" filter="url(#f1)" height="36.4883" style="stroke: #A80036; stroke-width: 1.5;" width="91" x="169.5" y="80.1992"/><rect fill="#FEFECE" height="5" style="stroke: #A80036; stroke-width: 1.5;" width="10" x="164.5" y="85.1992"/><rect fill="#FEFECE" height="5" style="stroke: #A80036; stroke-width: 1.5;" width="10" x="164.5" y="106.6875"/><text fill="#000000" font-family="sans-serif" font-size="14" lengthAdjust="spacingAndGlyphs" textLength="71" x="179.5" y="103.7344">schema.clj</text><rect fill="#FFA500" filter="url(#f1)" height="36.4883" style="stroke: #A80036; stroke-width: 1.5;" width="108" x="6" y="225.1992"/><rect fill="#FFA500" height="5" style="stroke: #A80036; stroke-width: 1.5;" width="10" x="1" y="230.1992"/><rect fill="#FFA500" height="5" style="stroke: #A80036; stroke-width: 1.5;" width="10" x="1" y="251.6875"/><text fill="#000000" font-family="sans-serif" font-size="14" lengthAdjust="spacingAndGlyphs" textLength="88" x="16" y="248.7344">Kafka cluster</text><rect fill="#FFA500" filter="url(#f1)" height="36.4883" style="stroke: #A80036; stroke-width: 1.5;" width="129" x="183.5" y="225.1992"/><rect fill="#FFA500" height="5" style="stroke: #A80036; stroke-width: 1.5;" width="10" x="178.5" y="230.1992"/><rect fill="#FFA500" height="5" style="stroke: #A80036; stroke-width: 1.5;" width="10" x="178.5" y="251.6875"/><text fill="#000000" font-family="sans-serif" font-size="14" lengthAdjust="spacingAndGlyphs" textLength="109" x="193.5" y="248.7344">Schema registry</text><path d="M75.5138,116.5724 C68.2916,125.4095 60.7432,136.594 57,148.1992 C49.3741,171.8419 51.7549,200.5312 55.0103,220.1552 " fill="none" style="stroke: #A80036; stroke-width: 1.0;"/><polygon fill="#A80036" points="55.8974,225.1889,58.2745,215.6312,55.0295,220.2648,50.3959,217.0198,55.8974,225.1889" style="stroke: #A80036; stroke-width: 1.0;"/><text fill="#000000" font-family="sans-serif" font-size="13" lengthAdjust="spacingAndGlyphs" textLength="140" x="61" y="161.7676">creates/deletes topics</text><text fill="#000000" font-family="sans-serif" font-size="13" lengthAdjust="spacingAndGlyphs" textLength="146" x="58" y="177.0781">using the topology.edn</text><text fill="#000000" font-family="sans-serif" font-size="13" lengthAdjust="spacingAndGlyphs" textLength="91" x="85.5" y="192.3887">todo is update</text><path d="M219.1127,116.2704 C225.0659,142.4281 236.0889,190.8624 242.6621,219.7446 " fill="none" style="stroke: #A80036; stroke-width: 1.0;"/><polygon fill="#A80036" points="243.8354,224.9003,245.7385,215.2371,242.7258,220.025,237.9379,217.0124,243.8354,224.9003" style="stroke: #A80036; stroke-width: 1.0;"/><text fill="#000000" font-family="sans-serif" font-size="13" lengthAdjust="spacingAndGlyphs" textLength="169" x="238" y="169.2676">sets/updates the schema's</text><text fill="#000000" font-family="sans-serif" font-size="13" lengthAdjust="spacingAndGlyphs" textLength="145" x="250" y="184.5781">using the schemas.edn</text></g></svg>