<?xml version="1.0" encoding="UTF-8" standalone="no"?><svg xmlns="http://www.w3.org/2000/svg" xmlns:xlink="http://www.w3.org/1999/xlink" contentScriptType="application/ecmascript" contentStyleType="text/css" height="734px" preserveAspectRatio="none" style="width:1060px;height:734px;" version="1.1" viewBox="0 0 1060 734" width="1060px" zoomAndPan="magnify"><defs><filter height="300%" id="fscaf99enhpc" width="300%" x="-1" y="-1"><feGaussianBlur result="blurOut" stdDeviation="4.0"/><feColorMatrix in="blurOut" result="blurOut2" type="matrix" values="0 0 0 0 0 0 0 0 0 0 0 0 0 0 0 0 0 0 .4 0"/><feOffset dx="8.0" dy="8.0" in="blurOut2" result="blurOut3"/><feBlend in="SourceGraphic" in2="blurOut3" mode="normal"/></filter></defs><g><text fill="#000000" font-family="sans-serif" font-size="36" lengthAdjust="spacingAndGlyphs" textLength="160" x="457" y="34.8047">Topology</text><!--cluster resources--><polygon fill="#FFFFFF" filter="url(#fscaf99enhpc)" points="28,74.3984,178,74.3984,192,119.375,850,119.375,850,216.3984,28,216.3984,28,74.3984" style="stroke: #000000; stroke-width: 3.0;"/><line style="stroke: #000000; stroke-width: 3.0;" x1="28" x2="192" y1="119.375" y2="119.375"/><text fill="#000000" font-family="sans-serif" font-size="28" font-weight="bold" lengthAdjust="spacingAndGlyphs" textLength="138" x="36" y="105.4688">resources</text><!--entity lb--><polygon fill="#FEFECE" filter="url(#fscaf99enhpc)" points="44,128.3984,44,201.375,252,201.375,252,148.3984,232,128.3984,44,128.3984" style="stroke: #000000; stroke-width: 3.0;"/><path d="M232,128.3984 L232,148.3984 L252,148.3984 " fill="#FEFECE" style="stroke: #000000; stroke-width: 3.0;"/><text fill="#000000" font-family="sans-serif" font-size="28" lengthAdjust="spacingAndGlyphs" textLength="168" x="64" y="175.4688">logback.xml</text><!--entity sc--><polygon fill="#FEFECE" filter="url(#fscaf99enhpc)" points="323,128.3984,323,201.375,541,201.375,541,148.3984,521,128.3984,323,128.3984" style="stroke: #000000; stroke-width: 3.0;"/><path d="M521,128.3984 L521,148.3984 L541,148.3984 " fill="#FEFECE" style="stroke: #000000; stroke-width: 3.0;"/><text fill="#000000" font-family="sans-serif" font-size="28" lengthAdjust="spacingAndGlyphs" textLength="178" x="343" y="175.4688">schemas.edn</text><!--entity tf--><polygon fill="#FEFECE" filter="url(#fscaf99enhpc)" points="611,128.3984,611,201.375,833,201.375,833,148.3984,813,128.3984,611,128.3984" style="stroke: #000000; stroke-width: 3.0;"/><path d="M813,128.3984 L813,148.3984 L833,148.3984 " fill="#FEFECE" style="stroke: #000000; stroke-width: 3.0;"/><text fill="#000000" font-family="sans-serif" font-size="28" lengthAdjust="spacingAndGlyphs" textLength="182" x="631" y="175.4688">topology.edn</text><!--entity tj--><rect fill="#FFFF00" filter="url(#fscaf99enhpc)" height="72.9766" style="stroke: #A80036; stroke-width: 3.0;" width="206" x="329" y="384.3984"/><rect fill="#FFFF00" height="10" style="stroke: #A80036; stroke-width: 3.0;" width="20" x="319" y="394.3984"/><rect fill="#FFFF00" height="10" style="stroke: #A80036; stroke-width: 3.0;" width="20" x="319" y="437.375"/><text fill="#000000" font-family="sans-serif" font-size="28" lengthAdjust="spacingAndGlyphs" textLength="166" x="349" y="431.4688">topology.jar</text><!--entity cl--><rect fill="#FEFECE" filter="url(#fscaf99enhpc)" height="72.9766" style="stroke: #A80036; stroke-width: 3.0;" width="166" x="197" y="640.3984"/><rect fill="#FEFECE" height="10" style="stroke: #A80036; stroke-width: 3.0;" width="20" x="187" y="650.3984"/><rect fill="#FEFECE" height="10" style="stroke: #A80036; stroke-width: 3.0;" width="20" x="187" y="693.375"/><text fill="#000000" font-family="sans-serif" font-size="28" lengthAdjust="spacingAndGlyphs" textLength="126" x="217" y="687.4688">clients.clj</text><!--entity vg--><rect fill="#FEFECE" filter="url(#fscaf99enhpc)" height="72.9766" style="stroke: #A80036; stroke-width: 3.0;" width="300" x="434" y="640.3984"/><rect fill="#FEFECE" height="10" style="stroke: #A80036; stroke-width: 3.0;" width="20" x="424" y="650.3984"/><rect fill="#FEFECE" height="10" style="stroke: #A80036; stroke-width: 3.0;" width="20" x="424" y="693.375"/><text fill="#000000" font-family="sans-serif" font-size="28" lengthAdjust="spacingAndGlyphs" textLength="260" x="454" y="687.4688">value_generator.clj</text><!--link tf to tj--><path d="M742.528,200.4002 C759.4582,235.3988 776.734,288.4022 750,324.3984 C725.1552,357.851 627.0266,384.127 546.2684,400.6686 " fill="none" id="tf-tj" style="stroke: #A80036; stroke-width: 2.0;"/><polygon fill="#A80036" points="535.504,402.8376,554.7296,407.1242,545.3069,400.8622,551.5689,391.4395,535.504,402.8376" style="stroke: #A80036; stroke-width: 2.0;"/><text fill="#000000" font-family="sans-serif" font-size="26" lengthAdjust="spacingAndGlyphs" textLength="236" x="782" y="287.5352">Provides topic info</text><text fill="#000000" font-family="sans-serif" font-size="26" lengthAdjust="spacingAndGlyphs" textLength="272" x="764" y="318.1563">links topic to schema</text><!--link lb to tj--><path d="M138.0346,200.559 C130.6578,235.6784 125.8734,288.771 152,324.3984 C172.6376,352.5406 250.1914,377.8434 318.4588,395.3982 " fill="none" id="lb-tj" style="stroke: #A80036; stroke-width: 2.0;"/><polygon fill="#A80036" points="328.4558,397.9314,312.9726,385.7548,318.7622,395.4749,309.0421,401.2645,328.4558,397.9314" style="stroke: #A80036; stroke-width: 2.0;"/><text fill="#000000" font-family="sans-serif" font-size="26" lengthAdjust="spacingAndGlyphs" textLength="252" x="154" y="302.5352">Set logging defaults</text><!--link sc to tj--><path d="M429.1852,200.8422 C427.9378,218.7678 426.6148,240.703 426,260.3984 C425.1124,288.829 425.1124,295.9678 426,324.3984 C426.4996,340.401 427.4666,357.882 428.4806,373.4898 " fill="none" id="sc-tj" style="stroke: #A80036; stroke-width: 2.0;"/><polygon fill="#A80036" points="429.1852,383.9546,435.9575,365.4577,428.5132,373.9772,419.9937,366.5329,429.1852,383.9546" style="stroke: #A80036; stroke-width: 2.0;"/><text fill="#000000" font-family="sans-serif" font-size="26" lengthAdjust="spacingAndGlyphs" textLength="312" x="428" y="287.5352">Compiled to java objects</text><text fill="#000000" font-family="sans-serif" font-size="26" lengthAdjust="spacingAndGlyphs" textLength="300" x="434" y="318.1563">Able to get all schema's</text><!--link tj to cl--><path d="M338.258,461.8376 C316.7522,475.9522 296.5432,493.9838 284,516.3984 C262.6964,554.4678 266.0186,606.0208 271.774,640.2006 " fill="none" id="tj-cl" style="stroke: #A80036; stroke-width: 2.0;"/><polygon fill="#A80036" points="346.876,456.4226,327.3787,459.2256,338.4088,461.7431,335.8914,472.7731,346.876,456.4226" style="stroke: #A80036; stroke-width: 2.0;"/><text fill="#000000" font-family="sans-serif" font-size="26" lengthAdjust="spacingAndGlyphs" textLength="210" x="286" y="543.5352">Clojure producer</text><text fill="#000000" font-family="sans-serif" font-size="26" lengthAdjust="spacingAndGlyphs" textLength="178" x="302" y="574.1563">and consumer</text><!--link tj to vg--><path d="M469.3958,464.9972 C481.7726,480.7432 495.1442,498.8952 506,516.3984 C531.2464,557.1042 554.5152,607.1726 568.946,640.3436 " fill="none" id="tj-vg" style="stroke: #A80036; stroke-width: 2.0;"/><polygon fill="#A80036" points="462.6442,456.5162,467.5961,475.5814,468.8724,464.3399,480.1139,465.6162,462.6442,456.5162" style="stroke: #A80036; stroke-width: 2.0;"/><text fill="#000000" font-family="sans-serif" font-size="26" lengthAdjust="spacingAndGlyphs" textLength="216" x="540" y="543.5352">Util functions for</text><text fill="#000000" font-family="sans-serif" font-size="26" lengthAdjust="spacingAndGlyphs" textLength="172" x="562" y="574.1563">iban and uuid</text><!--
@startuml

title Topology

package resources{
    file logback.xml as lb
    file schemas.edn as sc
    file topology.edn as tf
}
component topology.jar as tj #Yellow
component clients.clj as cl
component value_generator.clj as vg

tf - -> tj: Provides topic info\nlinks topic to schema
lb - -> tj: Set logging defaults
sc - -> tj: Compiled to java objects\nAble to get all schema's
tj <- - cl: Clojure producer\nand consumer
tj <- - vg: Util functions for\niban and uuid

@enduml

PlantUML version 1.2019.05(Sat Apr 20 18:45:36 CEST 2019)
(GPL source distribution)
Java Runtime: OpenJDK Runtime Environment
JVM: OpenJDK 64-Bit Server VM
Java Version: 1.8.0_202-release-1483-b49
Operating System: Mac OS X
OS Version: 10.14.4
Default Encoding: UTF-8
Language: en
Country: NL
--></g></svg>